<svg width="96" height="96" viewBox="0 0 96 96" fill="none" xmlns="http://www.w3.org/2000/svg">
<path d="M47.683 0.455875C55.5776 0.338988 63.112 0.853923 70.4917 2.86628C75.859 4.32894 80.8062 6.69196 84.8562 10.486C88.0943 13.5219 90.4478 17.2971 92.0621 21.4892C94.3177 27.3462 95.3571 33.4622 95.7077 39.6762C96.2384 49.0904 96.2069 58.5013 94.2356 67.7891C92.9372 73.9052 90.6342 79.5694 86.3599 84.2544C82.1046 88.9204 76.6394 91.5425 70.656 93.1568C65.3013 94.6005 59.8108 95.1249 54.2792 95.4029C46.0529 95.8167 37.8802 95.4882 29.7582 94.1108C24.8363 93.2768 20.1513 91.7289 15.8676 89.1352C8.77222 84.842 4.59272 78.3942 2.51087 70.5186C-0.0353734 60.9086 -0.288102 51.0995 0.207878 41.2305C0.473243 35.9579 1.07347 30.7454 2.51403 25.6592C4.75068 17.7425 8.87331 11.2032 16.0729 6.79621C21.6898 3.3591 27.9164 2.05754 34.2757 1.13508C38.8153 0.47483 43.3929 0.370579 47.683 0.455875ZM47.7777 89.5965C54.9142 89.7355 61.8294 89.3279 68.6279 87.6599C77.8998 85.3822 84.455 80.1191 87.3456 70.765C88.783 66.1116 89.5411 61.354 89.8065 56.4985C90.3056 47.3844 90.353 38.2925 88.3502 29.327C87.0328 23.4194 84.6666 18.0205 79.9027 13.9737C75.6316 10.347 70.5328 8.57794 65.1402 7.62073C54.9615 5.81372 44.7197 5.87059 34.4842 7.02682C30.2415 7.50701 26.0936 8.48317 22.151 10.2144C14.348 13.6388 9.92214 19.8181 8.01719 27.8896C5.07922 40.3523 5.20559 52.9192 7.29376 65.4861C8.08669 70.2532 9.63782 74.7739 12.6358 78.6659C16.6637 83.8942 22.2174 86.5858 28.4977 87.9537C34.9044 89.3469 41.4058 89.7639 47.7777 89.5965Z" fill="#F5F1F1"/>
<path d="M47.8251 27.9213C46.6404 32.2209 45.4526 36.5204 44.2711 40.8231C43.295 44.3739 42.3377 47.9311 41.3521 51.4788C40.8214 53.39 40.3159 53.6459 38.3667 53.0931C34.3799 51.9621 34.2789 51.7157 35.4888 47.7321C38.1835 38.8739 40.8435 30.0063 43.5035 21.1355C44.1732 18.8989 44.6976 18.4313 47.0259 18.2608C47.6545 18.2134 48.2895 18.2197 48.9182 18.2734C51.3696 18.4851 51.755 18.7725 52.4532 21.1166C56.1967 33.6709 59.9245 46.2283 63.6522 58.7858C64.1672 60.5202 63.8734 61.0035 61.9274 61.5943C54.7088 63.7867 47.3639 64.27 39.9273 63.0569C38.5089 62.8263 37.9339 63.3033 37.5675 64.6049C36.6829 67.745 35.6973 70.8536 34.7274 73.9685C34.1778 75.7376 33.6249 76.0724 31.8053 75.6365C30.529 75.3301 29.2717 74.932 28.0333 74.496C27.0319 74.1454 26.6496 73.3809 27.0161 72.3573C28.9779 66.8573 30.9397 61.3573 32.9394 55.8699C33.3943 54.6189 34.3989 54.6948 35.4351 55.0833C40.3096 56.9093 45.3831 57.2252 50.5135 57.0135C51.8751 56.9567 53.2367 56.7703 54.5888 56.5776C55.4291 56.4575 55.884 56.05 55.6092 55.0486C53.1229 46.0262 50.6683 36.9943 48.2042 27.9624C48.081 27.9466 47.9578 27.9339 47.8346 27.9182L47.8251 27.9213Z" fill="#F5F1F1"/>
</svg>
