<svg width="112" height="30" viewBox="0 0 112 30" fill="none" xmlns="http://www.w3.org/2000/svg">
<path d="M24.4132 11.2226C25.2262 11.2226 26.045 11.1938 26.858 11.2284C28.0342 11.286 28.951 12.4161 28.8011 13.5693C28.7204 14.2036 28.334 14.5957 27.6998 14.6822C27.4634 14.711 27.2212 14.7052 26.979 14.6937C25.2089 14.5726 23.4734 15.1434 21.6974 14.982C21.2881 14.9474 21.0747 15.1434 21.0805 15.5644C21.0805 16.1813 21.069 16.804 21.069 17.421C21.069 20.0906 21.0632 22.7602 21.0517 25.4299C21.0517 25.8566 21.0805 26.3005 20.9882 26.7099C20.8844 27.177 20.6423 27.4883 20.0484 27.6152C17.8689 28.0995 15.6893 28.5608 13.4579 28.7395C13.2734 28.7568 13.0889 28.8318 12.9044 28.8837C11.1169 29.4314 9.69851 28.728 8.56262 27.4537C8.02062 26.8483 7.93413 25.9661 8.17054 25.1531C8.28009 24.7783 8.34928 24.4208 8.34928 24.0345C8.34928 20.8863 8.36658 17.7439 8.36658 14.5957C8.36658 13.5924 8.17054 13.3964 7.18456 13.6212C5.52397 14.0018 3.84608 13.7942 2.17972 13.823C1.32636 13.8403 0.680573 13.2407 0.17317 12.6064C-0.19585 12.1509 0.0578512 11.6089 0.622914 11.3552C0.945807 11.2111 1.28023 11.1995 1.60889 11.2226C3.71923 11.3725 5.7892 10.7959 7.89377 10.9285C8.45307 10.9631 8.60875 10.6691 8.75866 10.2078C8.89704 9.78111 8.90281 9.36596 8.90858 8.93928C8.92587 7.12877 8.93164 5.31827 8.94894 3.50199C8.94894 3.12144 8.92587 2.73512 8.99506 2.36034C9.17381 1.32823 9.31796 1.33976 10.3962 1.17255C12.9101 0.809297 15.4414 0.97651 17.9726 0.930382C18.4973 0.91885 18.999 0.959212 19.5121 1.16102C20.625 1.59347 21.1093 2.24502 21.092 3.52506C21.0517 5.79107 21.092 8.06286 21.092 10.3346C21.092 11.1822 21.1151 11.1938 21.98 11.2111C22.793 11.2226 23.6117 11.2111 24.4247 11.2111L24.4132 11.2226ZM12.8064 3.9402C12.1433 6.03901 12.5123 8.15511 12.3854 10.3923C13.3656 10.1271 14.0864 9.75804 14.7206 9.291C15.2511 8.89892 16.2313 8.83549 16.289 8.18394C16.3524 7.41707 15.2569 7.35941 14.8302 6.81165C14.9628 6.19469 15.7412 6.19469 16.0065 5.65846C14.9225 5.07033 13.9768 4.33229 12.8064 3.9402ZM14.2767 20.2809C14.7783 20.0964 14.6226 19.5371 14.8706 19.2027C15.0089 19.0182 15.0493 18.7183 15.3549 18.7644C15.6086 18.8048 15.7758 19.0182 15.8104 19.2603C15.8623 19.6351 15.8508 20.0214 15.8738 20.402C15.8911 20.6326 15.8911 20.8921 16.2429 20.8633C16.3755 20.2175 16.2371 17.9515 16.0238 17.3979C15.9488 17.2076 15.8162 17.0808 15.6086 17.0577C15.4414 17.0404 15.3722 17.173 15.2857 17.2884C14.9686 17.7323 14.9109 18.3493 14.3689 18.7068C13.9768 18.2859 13.9826 17.7842 13.8096 17.3633C13.7289 17.1673 13.6251 17.0231 13.4175 17.0174C13.21 17.0116 13.0658 17.1385 12.9851 17.3287C12.9101 17.5017 12.7948 17.6689 12.7545 17.8477C12.5123 19.0182 12.0914 20.1194 11.6301 21.215C11.5321 21.4514 11.2438 21.7743 11.5494 22.0741C12.1144 22.1375 12.1952 21.682 12.3335 21.3591C12.6161 20.7076 12.8179 20.0214 13.0831 19.3641C13.2157 19.0354 13.5444 19.0412 13.7347 19.341C13.9307 19.6466 13.7981 20.1367 14.2824 20.2809H14.2767ZM11.7973 25.9488C12.3566 26.1622 12.7026 26.1968 12.9217 25.8681C13.5559 24.9225 14.5073 24.6342 15.5567 24.3689C16.7214 24.0749 17.6901 24.3055 18.63 24.9398C18.7453 25.0205 18.8894 25.0666 19.0163 25.1243C19.2008 25.2108 19.4026 25.2396 19.4949 25.032C19.5352 24.9398 19.4487 24.7264 19.3565 24.6688C18.3013 24.0288 17.5344 23.0197 16.3928 22.4662C15.92 22.2355 15.6663 22.1721 15.2972 22.5411C14.1844 23.6482 13.0543 24.7322 11.8031 25.9488H11.7973ZM19.4314 10.5307C18.4339 10.4038 17.6555 10.4327 16.8713 10.4557C16.6695 10.4615 16.5023 10.5595 16.4677 10.7901C16.2775 12.2028 16.0756 13.6155 16.1967 15.0454C16.214 15.2415 16.2717 15.4663 16.485 15.4779C17.396 15.524 18.3186 15.7027 19.3622 15.3049C18.7914 14.8667 18.3013 15.0281 17.8516 15.0051C17.3384 14.9762 17.0559 14.7283 17.004 14.2209C16.9463 13.6674 17.1827 13.3733 17.7824 13.2349C18.0764 13.1657 18.4627 13.356 18.6357 12.9524C18.4454 12.5661 18.0476 12.641 17.7593 12.5315C17.3326 12.37 16.9175 12.2835 17.004 11.6954C17.0905 11.0957 17.4883 10.9516 18.0303 10.9401C18.4224 10.9285 18.8721 11.0842 19.4314 10.5307ZM19.5698 6.70209C19.5698 6.58101 19.5756 6.48875 19.5698 6.39073C19.5006 5.65846 19.2469 5.3125 18.751 5.24907C18.088 5.16259 17.742 5.38746 17.4595 6.07937C17.1308 6.8866 17.3269 7.65924 17.6728 8.39151C17.8689 8.81243 18.3359 8.65098 18.6991 8.66251C19.022 8.66828 19.2584 8.52413 19.2757 8.18394C19.3046 7.66501 19.6794 7.21526 19.5698 6.70209ZM14.6284 15.7085V12.2547C14.3055 12.5084 14.4727 12.8371 14.3459 13.085C14.1441 13.4771 13.8212 13.6097 13.406 13.552C13.0601 13.5001 12.9563 13.2637 12.9332 12.9466C12.9159 12.6641 12.9159 12.3643 12.5411 12.2605C12.0625 13.3041 11.9991 14.3593 12.3047 15.4721C12.7948 15.3164 12.6391 14.9705 12.7083 14.7283C12.8525 14.2324 13.1984 14.0537 13.677 14.1056C14.1095 14.1517 14.3401 14.4169 14.4035 14.8494C14.4439 15.1146 14.3113 15.4202 14.6226 15.7085H14.6284ZM18.7568 18.874C18.3013 19.6351 18.5435 20.3328 18.3301 20.9267C18.3186 20.9613 18.4397 21.0766 18.5146 21.1054C18.6703 21.1631 18.8145 21.0766 18.8548 20.9382C19.0278 20.3155 19.0739 19.687 18.7568 18.8798V18.874ZM18.5896 17.6977C18.63 17.7727 18.6646 17.865 18.7222 17.9226C18.8087 18.0149 18.9183 17.9918 18.9356 17.8707C18.9471 17.8015 18.8894 17.6805 18.8318 17.6459C18.7799 17.617 18.6761 17.6747 18.5954 17.6977H18.5896Z" fill="#F5F1F1"/>
<path d="M87.6656 10.5077C88.2307 8.78944 88.7035 7.35372 89.1706 5.91223C89.4473 5.05311 89.8048 4.21128 89.9605 3.33486C90.1335 2.38924 90.8542 2.28545 91.5231 2.12401C92.238 1.9568 92.9588 2.05482 93.5584 2.53916C93.7487 2.68907 93.8179 2.93124 93.8237 3.17918C93.8237 3.5136 93.8237 3.84803 93.8237 4.18245C93.8237 10.7153 93.8237 17.2423 93.8237 23.7751C93.8237 25.6087 93.8237 25.6145 91.9959 25.6087C89.7529 25.6087 90.0354 25.7759 90.0182 23.5906C90.0066 21.8262 90.0182 20.0619 90.0182 18.2975C90.0182 16.2102 90.0989 14.1229 89.6491 12.0933C89.3205 13.3849 88.986 14.7226 88.6286 16.0488C88.5305 16.412 88.4095 16.7868 88.0058 16.9483C87.4523 17.1674 86.8642 16.8906 86.6854 16.2333C86.4202 15.2761 86.2299 14.2959 86.0051 13.333C85.8955 12.8775 85.7686 12.4278 85.613 11.8108C85.2785 13.4887 85.2094 14.9936 85.2266 16.51C85.2555 19.1797 85.2439 21.8493 85.2266 24.5189C85.2209 25.5395 85.1748 25.5683 84.183 25.6029C83.6064 25.6202 83.0298 25.6318 82.459 25.6029C81.6575 25.5568 81.4961 25.3781 81.4442 24.5478C81.4269 24.3114 81.4442 24.0692 81.4442 23.8328C81.4442 17.2538 81.4442 10.6749 81.4442 4.09596C81.4442 2.2105 81.9343 1.87607 83.7794 2.19897C84.7135 2.36041 85.1805 2.77556 85.44 3.65775C85.9935 5.57204 86.622 7.46327 87.2274 9.36027C87.3139 9.63127 87.4292 9.89074 87.6714 10.5077H87.6656Z" fill="#F5F1F1"/>
<path d="M42.7317 13.4656C44.5595 14.1287 44.8189 15.4895 44.8823 16.8214C44.9631 18.4243 45.0092 20.0388 44.6805 21.6533C44.2423 23.8213 42.4376 25.4934 40.2177 25.6029C39.5546 25.6375 38.8973 25.6318 38.2284 25.8047C37.2771 26.0527 36.343 25.626 35.3974 25.551C35.0456 25.5222 34.8438 25.1878 34.8208 24.8245C34.7977 24.4901 34.8035 24.1557 34.8035 23.827C34.8035 17.202 34.8035 10.5769 34.8035 3.94605C34.8035 2.20473 34.9188 2.08941 36.6774 2.08365C37.9632 2.08365 39.2375 2.1586 40.5291 2.30275C42.8181 2.55645 44.4787 4.45345 44.6229 6.55802C44.7209 7.93608 44.6805 9.32567 44.6344 10.7037C44.5941 11.8627 44.0405 12.7795 42.7317 13.4714V13.4656ZM38.6321 18.6607C38.6321 18.6607 38.6321 18.6607 38.6263 18.6607C38.6263 19.4218 38.6148 20.1887 38.6263 20.9498C38.6436 21.7859 38.7416 21.8608 39.5258 21.8262C40.4253 21.7801 40.8174 21.4284 40.8462 20.5001C40.8808 19.3123 40.8808 18.1187 40.8462 16.9252C40.8116 15.8412 40.2465 15.4145 39.151 15.5529C38.8108 15.5933 38.6263 15.7432 38.6263 16.0891C38.6263 16.9483 38.6263 17.8074 38.6263 18.6607H38.6321ZM38.6321 8.85863C38.6321 9.57361 38.6148 10.2828 38.6321 10.9978C38.6494 11.7358 39.0472 12.0357 39.7276 11.7589C40.3157 11.5225 40.8116 11.1131 40.8289 10.4039C40.8519 9.4064 40.8808 8.40312 40.8116 7.41138C40.7597 6.71946 40.431 6.18323 39.618 6.02179C38.8627 5.87187 38.6724 5.94106 38.6378 6.71947C38.6032 7.42868 38.6321 8.14365 38.6321 8.85863Z" fill="#F5F1F1"/>
<path d="M68.8283 13.9846C68.8283 17.4153 68.8283 20.846 68.8283 24.2768C68.8283 25.5856 68.811 25.5914 67.4503 25.6029C66.9717 25.6029 66.4931 25.6202 66.0145 25.6029C65.0689 25.5626 65.0286 25.5395 65.0055 24.6227C64.9824 23.6713 64.9997 22.7142 64.9997 21.7628C64.9997 19.9984 64.9997 18.2341 64.9997 16.4754C64.9997 16.043 65.0401 15.6106 64.4923 15.4203C63.9561 15.2358 63.4545 15.2704 62.9874 15.5933C62.653 15.8239 62.7568 16.1929 62.7568 16.5158C62.751 18.851 62.7279 21.1862 62.7568 23.5214C62.7856 25.8566 62.5896 25.6087 60.6003 25.6087C59.3395 25.6087 58.7091 24.9706 58.7091 23.6944C58.7091 17.1674 58.7091 10.6403 58.7091 4.10749C58.7091 2.45267 59.1531 2.02599 60.8252 2.08365C61.0616 2.08941 61.298 2.13554 61.5286 2.1932C62.6876 2.46997 62.7452 2.53339 62.751 3.72694C62.7625 6.01602 62.7452 8.29934 62.7625 10.5884C62.7683 11.6436 62.9125 11.7647 63.9042 11.7647C64.821 11.7647 64.9824 11.6378 64.9882 10.6864C65.0055 8.3051 64.9882 5.92377 64.9997 3.53667C64.9997 2.30275 65.1669 2.13554 66.3951 2.07788C66.8218 2.06058 67.2888 2.00292 67.6809 2.13554C68.7361 2.4815 68.8283 2.19897 68.8283 3.54243C68.8225 7.0193 68.8283 10.5019 68.8283 13.9788V13.9846Z" fill="#F5F1F1"/>
<path d="M56.7371 13.9903C56.7371 16.3255 56.7832 18.6665 56.7198 21.0017C56.6737 22.6969 56.1144 24.2307 54.4942 25.0379C52.1417 26.2084 48.2612 26.0123 47.1022 22.7661C46.8024 21.9243 46.6294 21.0306 46.6294 20.1195C46.6294 16.0199 46.6294 11.9146 46.6294 7.81501C46.6294 6.95012 46.8024 6.11405 47.0388 5.30106C47.6096 3.34063 50.0717 1.7204 52.528 2.25664C53.1334 2.38925 53.7446 2.41808 54.3097 2.73521C55.9702 3.68083 56.6968 5.15114 56.7313 6.97895C56.7717 9.31415 56.7429 11.6551 56.7429 13.9903H56.7371ZM50.6771 13.852C50.6771 15.8989 50.6771 17.94 50.6771 19.9869C50.6771 20.3675 50.6829 20.7538 50.7694 21.117C50.8732 21.5725 51.1557 21.8551 51.6919 21.8263C52.1647 21.8032 52.5395 21.6879 52.6318 21.1574C52.7586 20.4597 52.9258 19.7793 52.9201 19.0528C52.8912 15.674 52.897 12.3009 52.9201 8.92207C52.9201 8.24745 52.8393 7.60167 52.6664 6.96165C52.4761 6.25244 52.1128 5.82576 51.7092 5.91225C51.1384 6.0391 50.8097 6.44848 50.7232 7.00777C50.6656 7.38256 50.6771 7.76888 50.6771 8.14367C50.6771 10.0464 50.6771 11.9492 50.6771 13.852Z" fill="#F5F1F1"/>
<path d="M110.124 25.6145C109.836 25.6145 109.547 25.6202 109.265 25.6145C108.337 25.5856 108.354 25.5741 108.146 24.5824C107.881 23.3311 107.72 22.0684 107.599 20.7941C107.564 20.4136 107.472 20.1138 107.028 20.1656C106.641 20.206 106.122 19.9235 105.926 20.5289C105.8 20.9325 105.604 21.3304 105.661 21.7743C105.788 22.8295 105.396 23.8386 105.367 24.8822C105.356 25.3377 105.171 25.6029 104.687 25.6029C103.874 25.6029 103.055 25.626 102.248 25.5914C101.665 25.5626 101.51 25.3319 101.608 24.7438C102.161 21.4803 102.588 18.2052 103.026 14.9244C103.43 11.9319 103.983 8.95665 104.375 5.95836C104.491 5.0704 104.635 4.17668 104.71 3.28296C104.756 2.72366 105.033 2.4296 105.534 2.24509C106.284 1.96832 107.039 2.01445 107.789 2.1759C108.227 2.27392 108.458 2.57375 108.619 3.04656C108.884 3.82496 108.907 4.63796 109.04 5.41636C109.524 8.3051 109.841 11.2227 110.28 14.1172C110.695 16.8733 111.185 19.6179 111.623 22.3682C111.744 23.1178 111.75 23.8731 111.94 24.617C112.125 25.3377 111.888 25.551 111.139 25.5972C110.804 25.6202 110.47 25.5972 110.136 25.5972L110.124 25.6145ZM106.561 10.4039C106.457 12.0241 106.572 13.4426 106.261 14.8321C106.14 15.3741 106.238 15.9623 106.22 16.5273C106.209 16.9713 106.318 17.2827 106.849 17.225C107.443 17.1558 107.339 16.6888 107.241 16.3659C107.091 15.8585 107.039 15.3568 107.033 14.8321C107.016 13.4253 107.085 12.0068 106.566 10.4039H106.561Z" fill="#F5F1F1"/>
<path d="M71.0886 13.8116C71.0886 10.7153 71.0886 7.61895 71.0886 4.5284C71.0886 4.24011 71.0713 3.95758 71.0886 3.66928C71.1635 2.57375 71.5902 2.12401 72.6915 2.08941C73.9369 2.04905 75.1824 2.07788 76.4221 2.07788C77.1889 2.07788 77.9558 2.05481 78.7169 2.08941C79.5241 2.12401 79.7375 2.31428 79.7432 3.12728C79.7836 6.13134 79.9393 5.80844 77.2062 5.82574C74.7903 5.84304 75.1651 5.50285 75.1305 7.83229C75.119 8.8298 75.142 9.83307 75.1305 10.8306C75.1247 11.3034 75.315 11.534 75.8051 11.5225C76.2375 11.511 76.6642 11.5225 77.0967 11.5283C77.6675 11.5398 77.9962 11.8166 78.0077 12.3989C78.0192 13.0678 78.025 13.7309 78.0077 14.3997C77.9962 14.9821 77.6502 15.2531 77.0851 15.2646C76.6066 15.2761 76.128 15.2761 75.6494 15.2819C75.2977 15.2877 75.1305 15.4837 75.1305 15.8181C75.1305 17.7209 75.1305 19.6294 75.1305 21.5322C75.1305 21.9646 75.3784 22.103 75.7705 22.103C76.7277 22.103 77.6848 22.0857 78.6419 22.1145C79.5357 22.1434 79.7144 22.3336 79.749 23.2216C79.7721 23.7924 79.749 24.3633 79.749 24.9341C79.749 25.4127 79.4953 25.6145 79.034 25.6145C76.7392 25.6145 74.4386 25.6029 72.1437 25.626C71.5441 25.626 71.2615 25.3031 71.1462 24.8072C71.0655 24.444 71.077 24.0519 71.077 23.6713C71.077 20.3848 71.077 17.0982 71.077 13.8116H71.0886Z" fill="#F5F1F1"/>
<path d="M96.1012 13.8462C96.1012 10.4616 96.1012 7.07696 96.1012 3.69235C96.1012 2.38925 96.2569 2.2278 97.5254 2.08942C97.7157 2.06636 97.9117 2.07212 98.102 2.08365C99.9298 2.20474 100.16 2.61412 100.155 4.0902C100.143 10.6691 100.149 17.2481 100.149 23.827C100.149 24.0634 100.166 24.3056 100.132 24.542C100.011 25.3723 99.7799 25.6029 98.9208 25.5972C95.5189 25.5683 96.1473 26.0527 96.107 22.9967C96.0666 19.9466 96.1012 16.8964 96.1012 13.8462Z" fill="#F5F1F1"/>
<path d="M13.2388 8.09753C13.2734 7.74581 13.1524 7.2903 13.7117 7.24994C14.1383 7.22111 14.911 7.73428 14.9571 8.02834C15.009 8.357 14.2075 8.98549 13.7001 8.95089C13.1466 8.91053 13.2792 8.44349 13.2446 8.09753H13.2388Z" fill="#F5F1F1"/>
<path d="M13.2561 5.87764C13.2561 5.54321 13.3311 5.27798 13.6828 5.23762C14.0172 5.20302 14.6111 5.70466 14.5881 5.97566C14.565 6.25243 13.925 6.70217 13.6252 6.63298C13.1812 6.52919 13.285 6.1544 13.2619 5.87764H13.2561Z" fill="#F5F1F1"/>
<path d="M15.6259 23.8616C15.4011 23.8386 15.1416 23.8616 15.0782 23.5618C15.0205 23.2735 15.4299 22.9794 15.8854 22.9852C16.1968 22.9852 16.462 23.112 16.4101 23.4695C16.3409 23.9193 15.9431 23.8328 15.6317 23.8616H15.6259Z" fill="#F5F1F1"/>
</svg>
