<svg width="96" height="54" viewBox="0 0 96 54" fill="none" xmlns="http://www.w3.org/2000/svg">
<path d="M95.5898 34.7237C95.5898 35.9928 95.8283 37.2738 95.3895 38.5194C95.3071 38.7555 95.2806 39.0182 95.4367 39.2277C96.3406 40.4497 95.949 41.7513 95.681 43.0471C95.5456 43.6964 95.2541 44.2513 94.6564 44.5878C93.7789 45.0807 93.3785 45.8687 93.1135 46.8103C92.7366 48.1414 91.977 49.2896 91.1702 50.3994C90.331 51.5564 89.2239 52.1054 87.7605 51.9932C86.6417 51.9076 85.511 51.9755 84.3862 51.9548C82.758 51.9253 82.0042 51.3881 81.4094 49.8445C81.2858 49.5257 81.1768 49.1981 81.0914 48.8646C80.8117 47.7754 80.158 47.3357 79.0274 47.56C75.3704 48.292 71.631 48.2182 67.9357 48.531C63.366 48.9207 58.7697 49.2601 54.1706 49.1538C53.0016 49.1273 52.3509 49.4755 51.8032 50.6119C51.076 52.1201 49.9188 53.2624 48.0108 53.4542C46.1087 53.6461 44.2155 53.8734 42.3075 53.7081C40.7175 53.5694 40.2582 52.9436 40.5025 51.3645C40.6144 50.6385 40.7764 49.9183 40.903 49.1951C40.9619 48.8616 41.1032 48.5074 40.8618 48.2005C39.5279 46.5033 40.6704 45.0216 41.3976 43.6226C41.7421 42.9615 42.069 42.3889 42.1102 41.6303C42.1632 40.6356 42.5077 39.7029 43.0465 38.8736C45.5257 35.0424 46.8919 30.7745 48.0255 26.3973C49.0738 22.3537 49.9335 18.2274 49.9718 14.0952C50.0042 10.2789 52.1124 8.31315 54.8124 6.50385C58.2486 4.20163 62.1971 3.18335 66.1249 2.1503C69.8349 1.17629 73.645 0.819149 77.461 0.768973C80.0491 0.733554 82.6431 1.03756 85.1047 1.94664C86.4267 2.4366 87.631 3.11841 87.4779 4.87459C87.4573 5.10186 87.5574 5.3675 87.6693 5.57411C91.3351 12.2859 93.0369 19.6117 94.4738 27.0378C94.9656 29.588 95.5868 32.1056 95.5927 34.7207L95.5898 34.7237ZM70.9597 38.1209C76.7631 38.3718 81.5449 33.8943 81.7628 27.9174C81.9394 23.0444 78.1647 17.28 71.7017 17.0911C65.433 16.9081 60.8927 21.4771 60.6836 27.0762C60.4481 33.4515 65.2651 38.1593 70.9597 38.118V38.1209Z" fill="#F5F1F1"/>
<path d="M27.8739 49.0417C27.338 49.8622 27.5824 50.7359 27.55 51.5859C27.4823 53.4395 27.2173 53.7169 25.4065 53.7199C24.1845 53.7199 22.9626 53.711 21.7407 53.6992C19.8651 53.6786 19.4529 53.2712 19.444 51.335C19.4322 48.9354 19.4558 46.5358 19.4646 44.1362C19.4705 42.4213 19.447 40.7065 19.5 38.9946C19.553 37.3063 19.9564 36.9196 21.6317 36.9226C25.8334 36.9255 30.0351 36.9462 34.2368 36.9846C35.974 36.9993 36.2537 37.3033 36.2478 39.0861C36.2331 43.3481 36.2096 47.6072 36.1772 51.8693C36.1654 53.5074 35.9181 53.7553 34.3134 53.7612C32.7999 53.7671 31.2835 53.7405 29.7701 53.7405C28.7366 53.7405 28.2743 53.2093 28.2155 52.2057C28.1536 51.155 28.3421 50.0777 27.8769 49.0476L27.8739 49.0417Z" fill="#F5F1F1"/>
<path d="M8.39359 48.6019C7.7841 49.753 8.0226 50.6857 7.99021 51.5711C7.92838 53.2742 7.70165 53.5546 6.03806 53.59C4.62179 53.6195 3.20552 53.6166 1.78925 53.5841C0.381818 53.5516 0.00493191 53.2181 0.00198749 51.8545C-0.00684578 47.3976 0.0137652 42.9408 0.0638204 38.484C0.0785425 37.2148 0.490762 36.8222 1.78336 36.8252C6.17939 36.8252 10.5784 36.8547 14.9744 36.9137C16.4436 36.9344 16.7881 37.3033 16.7911 38.7762C16.797 43.1356 16.7764 47.4951 16.741 51.8516C16.7293 53.2978 16.4113 53.6284 15.0362 53.652C13.4727 53.6786 11.9092 53.6372 10.3457 53.6195C9.27103 53.6077 8.76165 53.0853 8.73515 51.9814C8.71159 50.9602 8.96481 49.8888 8.39654 48.5989L8.39359 48.6019Z" fill="#F5F1F1"/>
<path d="M28.0623 23.6878C28.5158 22.6459 28.3273 21.7663 28.3568 20.9192C28.4245 18.9535 28.7219 18.6554 30.7182 18.6643C32.0373 18.6702 33.3594 18.6436 34.6785 18.6938C35.9652 18.7439 36.3215 19.104 36.3215 20.4175C36.3244 24.8773 36.3067 29.3371 36.2685 33.7969C36.2567 35.0897 35.8857 35.4734 34.6049 35.5058C33.0914 35.5472 31.5721 35.5383 30.0587 35.4822C28.7307 35.432 28.3597 35.007 28.3038 33.6582C28.2655 32.7786 28.2596 31.899 28.2272 31.0195C28.2272 30.9486 28.1153 30.8807 27.9505 30.6889C27.5176 31.3973 27.6737 32.1234 27.6678 32.8022C27.656 35.1959 27.3734 35.4852 24.9383 35.4763C23.7664 35.4704 22.5916 35.4822 21.4197 35.4409C20.0329 35.3907 19.5912 35.0454 19.5795 33.7054C19.5471 29.2958 19.5588 24.8832 19.6295 20.4765C19.6531 18.9447 20.1095 18.6111 21.6288 18.6111C23.045 18.6111 24.4643 18.6111 25.8805 18.6524C27.2997 18.6938 27.6089 19.0804 27.7237 20.5267C27.8003 21.4977 27.394 22.5278 28.0623 23.6908V23.6878Z" fill="#F5F1F1"/>
<path d="M8.27287 23.493C9.03548 22.9558 8.87943 22.336 8.88826 21.787C8.93341 19.6599 10.0327 18.5924 12.186 18.5846C13.2136 18.5816 14.2412 18.5846 15.2659 18.5757C16.3465 18.5698 16.9059 19.0922 16.903 20.1873C16.8824 24.6972 16.8794 29.2072 16.8264 33.7172C16.8117 34.9096 16.32 35.3642 15.0686 35.3966C13.5552 35.435 12.0358 35.4232 10.5224 35.3553C9.20037 35.2963 8.89709 34.8801 8.80876 33.4958C8.74693 32.5277 9.13559 31.4888 8.35532 30.3849C7.90188 31.4976 8.12271 32.4716 8.08443 33.4102C8.0226 34.9509 7.68693 35.3465 6.18528 35.3671C4.71896 35.3878 3.24969 35.3937 1.78336 35.3287C0.529039 35.2756 0.110931 34.8653 0.107987 33.5932C0.096209 29.1334 0.11682 24.6707 0.163931 20.2109C0.178653 18.9033 0.570261 18.5314 1.84225 18.5167C3.40574 18.496 4.97218 18.5432 6.53566 18.558C7.63393 18.5669 8.10799 19.1454 8.13449 20.2168C8.16098 21.2557 8.01376 22.3153 8.27287 23.493Z" fill="#F5F1F1"/>
<path d="M27.974 5.71283C27.5883 7.91174 27.5353 9.78007 27.8857 11.7251C28.3951 11.5569 28.3745 11.2824 28.401 11.0522C28.6395 9.0658 28.6895 9.01267 30.6063 9.01267C31.9284 9.01267 33.2475 8.99791 34.5695 9.04513C35.9652 9.09826 36.3803 9.5469 36.3892 10.9489C36.398 12.4689 36.3951 13.989 36.3597 15.509C36.3303 16.8018 35.974 17.215 34.6991 17.218C30.2471 17.2298 25.7981 17.1885 21.3461 17.1678C20.2537 17.1619 19.7326 16.5509 19.6796 15.5268C19.6295 14.597 19.6501 13.6643 19.6531 12.7316C19.6648 9.34914 19.6707 5.96371 19.7061 2.58123C19.7237 0.674523 20.0682 0.329191 21.9232 0.332143C26.0807 0.338046 30.2383 0.355755 34.3958 0.388222C36.2155 0.40298 36.4363 0.636153 36.4363 2.4248C36.4363 3.89467 36.4039 5.3675 36.4098 6.83737C36.4127 7.84975 35.9446 8.43121 34.9287 8.44302C33.168 8.46368 31.4072 8.43121 29.6464 8.4194C28.8691 8.4135 28.4922 8.01504 28.4481 7.24469C28.4245 6.83147 28.504 6.37693 27.977 5.70693L27.974 5.71283Z" fill="#F5F1F1"/>
<path d="M8.37593 5.79252L8.34649 11.5126C9.0237 11.5274 8.89415 10.9902 8.94126 10.6242C9.14737 9.05989 9.27398 8.93003 10.861 8.92117C12.2302 8.91232 13.5993 8.90936 14.9685 8.94183C16.4319 8.9743 16.9324 9.45835 16.9501 10.8721C16.9678 12.3922 16.9707 13.9123 16.9177 15.4323C16.8735 16.6779 16.4407 17.1294 15.1982 17.1324C10.7462 17.1383 6.29717 17.1147 1.8452 17.0675C0.614428 17.0557 0.187486 16.6159 0.184542 15.3319C0.181597 10.8692 0.205153 6.4094 0.258152 1.94664C0.275819 0.57417 0.646816 0.234741 2.06603 0.234741C6.41789 0.234741 10.7727 0.258354 15.1245 0.302627C16.6115 0.317385 17.0119 0.774876 17.006 2.28017C17.0031 3.70282 17.006 5.12547 16.9678 6.54517C16.9324 7.80548 16.5202 8.30429 15.3365 8.33676C13.6258 8.38694 11.9122 8.33381 10.2015 8.31905C9.43592 8.31315 9.05904 7.91764 8.9707 7.15319C8.92065 6.71045 9.14148 6.1408 8.37593 5.79252Z" fill="#F5F1F1"/>
</svg>
