<svg width="20" height="21" viewBox="0 0 20 21" fill="none" xmlns="http://www.w3.org/2000/svg">
<path d="M19 7.50001L19 1.50001M19 1.50001H13M19 1.50001L10 10.5M8 1.5H5.8C4.11984 1.5 3.27976 1.5 2.63803 1.82698C2.07354 2.1146 1.6146 2.57354 1.32698 3.13803C1 3.77976 1 4.61984 1 6.3V14.7C1 16.3802 1 17.2202 1.32698 17.862C1.6146 18.4265 2.07354 18.8854 2.63803 19.173C3.27976 19.5 4.11984 19.5 5.8 19.5H14.2C15.8802 19.5 16.7202 19.5 17.362 19.173C17.9265 18.8854 18.3854 18.4265 18.673 17.862C19 17.2202 19 16.3802 19 14.7V12.5" stroke="black" stroke-width="2" stroke-linecap="round" stroke-linejoin="round"/>
</svg>
