<svg width="114" height="52" viewBox="0 0 114 52" fill="none" xmlns="http://www.w3.org/2000/svg">
<path d="M56.0359 41.6389C55.6336 41.6389 55.3379 41.6034 55.0599 41.6448C54.3619 41.7572 53.9005 41.4437 53.4037 40.9705C52.8832 40.4796 52.6821 39.9709 52.7826 39.2966C52.8713 38.7051 52.5046 38.0071 53.1848 37.5458C53.4924 37.3387 53.4037 37.0134 53.3327 36.7531C53.2913 36.5875 53.0843 36.4515 52.9246 36.3509C52.895 36.3332 52.6939 36.5165 52.6288 36.6408C52.4632 36.9661 52.2266 37.3032 52.2207 37.6404C52.2207 37.9835 51.99 38.1668 51.8717 38.3916C51.5286 39.0363 51.2211 39.7166 50.878 40.3317C50.5231 40.9705 50.1386 41.6212 49.9434 42.3073C49.8015 42.8042 49.3046 42.9816 49.21 43.4903C49.1449 43.8275 48.932 43.7979 48.648 43.443C48.2931 42.9994 47.9619 42.9521 47.7904 43.4075C47.6484 43.7861 47.2048 43.8925 47.1575 44.3302C47.1101 44.7916 46.6606 44.6201 46.4595 44.5609C46.1815 44.4781 46.2229 44.1942 46.4358 43.9931C46.6961 43.7506 46.5423 43.443 46.5778 43.165C46.6074 42.9402 46.5127 42.7864 46.2584 42.816C46.0454 42.8397 45.661 42.6977 45.7142 43.0763C45.8088 43.7624 45.0221 43.9635 44.9867 44.555C44.8506 44.5373 44.7086 44.555 44.5904 44.5018C44.5371 44.4781 44.4898 44.3066 44.5194 44.2534C44.6968 43.9813 44.9571 43.7447 45.0931 43.4548C45.3593 42.8811 45.4776 42.2186 45.8207 41.6981C46.1578 41.1835 46.4891 40.7399 46.6192 40.0951C46.7079 39.6337 47.2107 39.2729 47.4532 38.8234C47.6602 38.4507 47.3763 38.155 46.9386 38.084C46.0513 37.9361 45.3001 38.2733 44.9926 39.0068C44.7027 39.7047 43.7563 39.9946 43.8865 40.9173C43.9042 41.0356 43.6439 41.219 43.4842 41.3195C43.3778 41.3905 43.1116 41.2663 43.1057 41.4319C43.0406 42.6918 41.5146 43.1827 41.5264 44.4663C40.7042 45.1998 40.2783 46.2822 39.2314 46.9565V45.5487C38.3619 45.2826 37.8591 45.5014 37.6047 46.2999C37.445 46.7968 37.1256 47.2345 36.6583 47.5007C36.5164 47.5835 36.2206 47.5717 36.0964 47.477C35.8184 47.2641 36.2502 47.2227 36.2502 47.0748C36.2443 46.4182 36.6938 45.9805 36.9482 45.4423C37.4155 44.4604 38.1312 43.585 38.3205 42.4789C38.3678 42.2009 38.5689 41.846 38.6754 41.7691C39.4266 41.213 39.1545 40.45 39.2018 39.752C39.2077 39.6515 39.2432 39.5214 39.1959 39.4622C38.9711 39.1842 38.7523 38.7347 38.4033 38.7761C38.0898 38.8116 38.0129 39.2374 38.007 39.6101C37.9892 40.7694 37.9715 40.7694 37.5574 41.6153C37.1848 41.1657 37.4155 40.5979 37.309 40.101C37.1197 39.202 36.4927 38.5572 36.2561 37.7232C36.1023 37.179 35.2683 37.3387 35.2565 36.6763C35.2565 36.6467 34.9016 36.6408 34.7182 36.6053C34.3042 36.5165 33.9315 36.8064 33.9197 37.0607C33.9079 37.4393 33.6062 37.6227 33.5352 37.9598C33.4288 38.4567 33.482 39.1783 32.7426 39.3676C32.6894 39.9886 32.441 40.5092 32.021 40.9883C31.5596 41.5147 31.4236 42.2304 31.258 42.8752C31.1456 43.3247 31.0273 43.4016 30.6251 43.4016C30.211 43.4016 30.0217 43.3424 30.0158 42.8574C30.0158 42.4729 29.7319 42.3901 29.4716 42.6327C29.0162 43.0526 28.5844 43.4903 28.5607 44.1705C28.5548 44.3657 28.5725 44.5609 28.2827 44.5728C28.0106 44.5787 27.9692 44.419 27.9692 44.206C27.9692 44.0641 27.9633 43.9162 27.9101 43.7861C27.8864 43.7269 27.7504 43.6914 27.6676 43.6914C27.5847 43.6914 27.4605 43.7328 27.425 43.7979C27.2831 44.0404 27.5315 44.4131 27.2062 44.5846C26.7981 44.8034 26.8158 45.9332 25.9285 45.1702C25.7688 45.0341 25.6269 45.3535 25.4613 45.4304C25.3489 45.4837 25.1478 45.5192 25.0768 45.3535C25.0295 45.2412 25.0117 45.0223 25.0768 44.9691C25.6446 44.484 25.8102 43.8097 26.0114 43.1413C26.1947 42.5262 26.8395 42.1535 26.8809 41.426C26.8927 41.2663 27.0228 40.9055 27.2476 40.6984C27.3836 40.5742 27.6794 40.4914 27.5966 40.172C27.0879 40.0655 26.6561 40.4145 26.4905 40.657C26.106 41.219 25.5322 41.4142 25.0472 41.7868C24.509 42.1949 23.9589 42.4848 23.3082 42.5912C22.693 42.6918 22.4564 43.4785 21.7171 43.4016C21.1019 43.3365 20.7293 43.8571 20.2442 44.1232C19.7415 44.4012 19.1026 44.4604 18.5112 44.555C18.2331 44.6023 18.2036 44.7561 18.2272 44.9513C18.2509 45.1051 18.381 45.1406 18.5407 45.1643C19.0435 45.2412 19.5049 45.04 19.984 45.0046C19.984 45.0519 20.0076 45.1169 19.984 45.1465C19.6764 45.602 19.079 45.4659 18.7123 45.7558C17.9315 46.3709 16.8964 46.4774 16.1333 46.9861C15.4294 47.4534 14.8143 47.8319 13.9744 47.8083C13.1108 48.7547 11.8272 48.5654 10.7566 48.9321C10.2302 49.1155 9.95807 49.7366 9.24236 49.6183C8.73958 49.5354 8.07119 49.6951 7.66305 49.9968C6.62793 50.7658 5.37395 50.6652 4.2501 51.0438C4.12589 51.0852 3.9721 51.026 3.6941 51.0024C4.14364 50.4345 4.63458 50.1861 5.24974 50.1684C5.42719 50.1684 5.51 50.0796 5.52774 49.914C5.54549 49.6715 5.4331 49.565 5.19059 49.5709C4.84752 49.5769 4.51036 49.5709 4.16138 49.5709C4.05491 49.0859 4.53994 49.358 4.67007 49.1391C4.80611 48.9203 5.11369 48.8138 5.40353 48.6127C4.3684 48.039 3.64678 48.802 2.84825 48.6896C2.06156 48.5772 1.33401 49.358 0.5 48.8375C0.949539 48.3939 1.4464 48.0981 2.10296 48.0922C2.51701 48.0863 2.68263 47.8319 2.56433 47.4534C2.5111 47.2818 2.33956 47.1517 2.28633 46.9802C2.16803 46.6016 2.32773 46.3709 2.7477 46.3354C3.72367 46.2526 4.605 45.7144 5.60464 45.7439C6.34401 44.8981 7.71629 45.2471 8.3906 44.2711C9.46713 44.1351 10.242 43.301 11.2889 43.0585C11.7503 42.9521 12.1052 42.4315 12.5666 42.2363C12.8564 42.118 13.028 41.982 12.8801 41.7631C12.7026 41.497 12.1939 41.5206 12.1289 41.704C11.8035 42.6741 11.1115 41.9938 10.4194 42.3487C10.9459 41.5798 11.3895 41.1302 11.4605 40.4382C11.496 40.101 11.7267 39.7402 11.9751 39.4859C12.2767 39.1665 12.5607 38.7702 12.5784 38.4153C12.608 37.9243 13.1344 37.5872 12.9156 37.0666C13.5899 36.9838 13.4952 36.3332 13.6963 35.9369C13.8975 35.5406 14.2228 35.1502 14.14 34.6474C15.0036 34.0973 14.7965 32.8966 15.5773 32.2932C15.8021 31.1516 16.5769 30.2526 16.9555 29.182C17.2039 28.4781 17.062 28.2829 16.364 28.342C16.1688 28.3598 16.015 28.3834 15.8376 28.5076C15.5063 28.7383 14.9799 28.7975 14.7788 28.5313C14.2938 27.8984 13.7437 28.2592 13.3414 28.4189C12.7322 28.6496 12.0993 28.7383 11.4841 28.9217C10.9932 29.0637 10.7921 29.7261 10.1 29.5546C9.67415 29.4481 9.25419 29.9568 8.75141 29.8208C7.92923 30.6193 6.74623 30.4418 5.80575 30.8973C5.46268 31.0629 5.14327 30.9505 4.81203 30.9979C4.54585 30.8322 4.67598 30.5661 4.64641 30.3354C4.61092 30.0041 4.65232 29.7735 5.09595 29.803C5.5514 29.8326 5.77617 29.5369 5.82349 29.1051C5.85307 28.8448 5.83532 28.6141 5.46859 28.6319C5.2734 28.6437 5.01905 28.555 4.88892 28.6496C4.17912 29.1465 3.41018 28.833 2.59391 28.9572C3.16766 28.2651 3.83014 27.9812 4.61092 27.9339C4.74696 27.4784 5.52774 28.1232 5.56915 27.3365C5.58689 26.9697 6.23163 27.2655 6.55695 26.952C6.74623 26.7686 7.20169 26.6444 7.54475 26.532C8.10668 26.3487 8.81056 26.0529 8.92886 25.3668C9.09448 24.4322 10.0527 23.8644 9.99356 22.8529C10.9518 22.084 10.9281 20.759 11.703 19.8658C11.981 19.5464 12.0993 19.0377 12.1644 18.6C12.2531 18.0144 12.9333 17.8074 12.9451 17.1331C12.9511 16.6599 13.4065 16.2518 13.7259 15.8436C13.9862 15.5065 13.9211 14.9091 14.1873 14.5778C14.8734 13.7438 15.045 12.6377 15.7311 11.8155C15.9086 11.6026 16.0919 11.2714 16.1097 11.0998C16.228 9.83401 17.3991 9.07689 17.4287 7.72236C16.849 7.48576 16.2398 8.13049 15.5418 8.17781C14.8853 8.21922 14.3352 8.65101 13.7555 8.82255C13.2054 8.98225 12.6257 9.30758 11.9751 9.19519C11.561 9.12421 11.8804 9.75712 11.5078 9.76895C11.2121 9.78078 10.9163 9.75712 10.6206 9.77486C10.2657 9.79852 10.1533 9.50869 9.95807 9.30758C10.1947 9 10.9459 9.46137 10.8808 8.69833C10.8808 8.66876 11.0405 8.58595 11.1174 8.59778C11.5137 8.63918 11.7621 8.57412 11.7267 8.07134C11.6793 7.44435 11.2298 7.75785 10.9577 7.72236C10.6206 7.67504 10.2716 7.70461 9.9285 7.71053C9.75105 7.71053 9.67415 7.6218 9.65049 7.45618C9.62683 7.29056 9.70964 7.20184 9.83977 7.11311C10.4372 6.7109 11.2712 6.35008 12.2827 6.26136C12.6494 6.22587 12.8801 5.93012 13.1877 5.95969C13.5958 5.99518 13.8265 5.79407 14.0512 5.5279C14.3588 5.16708 14.8853 5.55156 15.1219 5.29721C15.5004 4.89499 16.0328 5.26172 16.3226 4.98372C16.7012 4.6229 17.0738 4.48686 17.5884 4.42771C17.9788 4.38039 18.4047 4.25617 18.7892 4.13196C19.1973 4.00183 19.5758 3.84804 20.0076 3.87761C20.7234 2.75376 22.3145 3.46356 23.0657 2.41661C23.5389 2.41661 23.9766 2.25099 24.4202 2.15044C25.1064 1.99665 25.7274 1.71864 26.3899 1.54711C27.638 1.26319 28.8624 0.914202 30.1519 0.943777C31.7252 0.985182 33.3045 0.985182 34.872 0.943777C35.6942 0.920117 36.3508 1.16263 36.9009 1.76005C37.0665 1.9375 37.2321 2.12678 37.4273 2.28057C37.8768 2.64138 38.1016 3.04951 38.0306 3.65876C37.9596 4.28575 38.0129 4.92457 38.0129 5.52198C38.4447 6.04842 38.5866 5.34453 38.912 5.36819C39.184 5.38594 39.4739 5.46283 39.7578 5.27947C40.3789 4.87725 41.3253 5.30904 41.7926 4.49869C42.3367 4.49869 42.875 4.49277 43.4133 4.5046C43.4842 4.5046 43.5966 4.60516 43.6144 4.67022C43.6439 4.80627 43.6617 5.03104 43.502 5.04878C43.1412 5.09019 42.9164 5.25581 42.7804 5.61662C43.2476 5.79999 43.922 5.42734 44.1763 6.14306C43.8687 6.5926 43.3245 6.72864 42.8395 6.9889C42.4077 7.2255 41.7393 6.82328 41.5855 7.37929C41.3726 8.14232 40.7515 7.4621 40.5327 7.75785C40.1659 8.25471 39.5803 7.82291 39.1722 8.18373C39.6099 8.51497 40.1837 8.16007 40.6273 8.65101C41.2484 9.33124 41.7216 9.95823 41.5737 10.9342C41.485 11.5375 41.6683 12.1586 41.2898 12.7442C41.1715 12.9276 41.1833 13.3061 41.4022 13.6433C41.7334 12.7205 42.1238 11.8983 42.668 11.1116C42.9756 10.668 43.0465 10.0174 43.431 9.52052C43.7859 9.05915 43.8037 8.42033 44.1586 7.90572C44.6318 7.23141 44.5667 7.19001 45.5013 7.39112C45.5841 7.40886 47.1989 6.93567 47.3112 6.85877C47.465 6.75822 47.5301 6.50387 47.7726 6.55711C48.5593 6.72864 49.2218 6.14897 50.0144 6.24361C50.7419 6.33234 51.4872 6.24361 52.2266 6.26727C52.8832 6.28502 53.6521 7.10128 53.6639 7.78151C53.6817 8.65101 53.6639 9.5146 53.7941 10.3959C53.7941 9.76303 54.4151 9.31941 54.2614 8.66876C54.1371 8.15415 54.8824 8.50314 54.8647 8.0536C54.8529 7.77559 54.7109 7.42069 54.9534 7.21958C55.4148 6.82919 54.841 6.11348 55.4503 5.79407C55.3024 5.04287 55.7756 5.02512 56.302 5.08427C56.3908 5.0961 56.4795 5.13159 56.6155 5.17891V6.73456C57.0946 6.8706 56.8344 6.45655 56.9763 6.356C57.136 6.2377 57.2603 6.09574 57.2189 5.87097C57.1597 5.49241 57.3135 5.37411 57.698 5.36819C58.1889 5.36228 58.0884 5.66986 58.1061 5.94786C58.1061 6.03659 58.1593 6.1194 58.1948 6.21404C58.2658 6.17855 58.3368 6.14897 58.4019 6.10757C58.6562 5.95378 58.7686 5.451 59.2181 5.75267C59.5612 5.98335 59.786 6.92975 59.508 7.00073C58.6917 7.21367 59.1885 7.89389 58.9046 8.24288C58.5793 8.6451 58.7863 9.30166 58.1948 9.5915C57.9996 9.68614 57.834 10.0529 57.8281 10.2954C57.7985 10.9638 57.4909 11.4547 57.0355 11.8924C56.8699 12.0521 56.8403 12.2473 57.0237 12.3893C57.1952 12.5253 57.3726 12.4544 57.5264 12.2946C57.763 12.0462 58.0115 11.8037 58.254 11.5612C60.1704 9.65065 62.081 7.7401 63.9974 5.82956C64.2873 5.53973 64.5416 5.06061 65.0326 5.62845C65.1509 5.77041 65.3579 5.57522 65.5294 5.49241C65.8961 5.32087 66.2156 4.9778 66.6828 5.07244C66.8071 5.0961 67.0377 5.173 66.8721 5.27355C66.4581 5.53381 66.8721 6.05433 66.4699 6.30276C65.8429 6.69907 65.7128 7.51533 65.1154 7.95304C64.932 8.08909 64.9557 8.12458 64.9852 8.89353C65.8015 8.2902 66.3102 7.36746 67.2507 6.97115C67.1738 6.49796 67.505 6.58668 67.7889 6.52753C68.0965 6.46247 68.4573 6.36191 68.6525 6.14306C69.1553 5.57522 69.8474 5.44509 70.498 5.23215C71.1073 5.03104 71.7047 4.87133 72.2843 4.52826C72.657 4.30941 73.2012 4.05506 73.7572 4.17336C74.0174 4.2266 74.2244 4.23251 74.3842 3.81255C74.5439 3.38667 75.6618 3.53454 76.0049 3.93085C76.2296 4.18519 76.1291 4.42771 75.8984 4.52826C75.3069 4.78852 74.8929 5.24398 74.467 5.69352C74.3073 5.85914 73.9819 5.96561 74.0588 6.24953C74.1357 6.55119 74.2659 6.88243 74.4729 7.10128C75.2004 7.84657 75.2182 7.82883 75.2773 8.5268C75.6441 8.39075 75.786 8.00628 75.7801 7.74602C75.7742 7.27282 76.1468 7.08945 76.2947 6.76413C76.4426 6.43881 76.7028 6.1608 76.7088 5.75267C76.7265 5.00146 77.5073 4.63473 77.6847 3.94859C77.6966 3.90719 77.8622 3.88353 77.945 3.90127C78.0278 3.91902 78.1579 3.99591 78.1638 4.04915C78.1816 4.54009 78.1757 5.03104 78.1757 5.65211C78.5306 5.54564 78.6666 5.173 78.921 5.0961C79.2404 5.00146 79.6012 5.06653 79.9443 5.07244C80.5476 5.07836 80.654 5.26172 80.4825 5.87097C80.2282 6.7523 79.8082 7.55674 79.4415 8.38484C79.3232 8.65101 79.2699 8.92902 79.4888 9.18336C79.7905 9.05323 79.5716 8.63918 79.9029 8.49131C80.3642 8.2902 80.7901 8.07726 80.9616 7.48576C81.074 7.09537 81.7247 7.09537 81.8785 6.56302C82.0086 6.1194 82.8249 6.29685 82.9017 5.6876C82.9668 5.15525 83.7062 5.173 83.7417 4.89499C83.8304 4.23251 84.4337 4.30941 84.7117 3.97817C84.9957 3.64101 85.2263 3.25062 85.6463 3.07909C85.8533 2.99628 86.1018 3.01994 86.4685 2.97853C86.2437 3.49905 85.7646 3.68242 85.599 4.08464C85.9598 4.37447 86.1491 4.06689 86.3147 3.85987C86.7879 3.2802 87.0186 3.77706 87.3321 4.0314C85.6049 5.75858 83.9014 7.4621 82.192 9.1597C81.6892 9.66248 81.1509 10.1416 81.1332 10.9283C81.1332 11.0939 81.0385 11.159 80.9321 11.2595C80.447 11.7327 80.3701 12.0344 80.7546 12.478C81.1746 12.9571 81.3757 13.4895 81.4821 14.0987C81.6241 14.9091 82.5173 15.4651 82.3102 16.4056C82.9077 17.2928 82.47 18.2924 82.6001 19.2329C82.6237 19.4045 82.5114 19.505 82.3457 19.4991C82.1565 19.4932 81.8134 19.4636 81.8134 19.4222C81.772 18.8307 80.9143 18.6237 81.1273 17.9257C81.2337 17.5708 80.9498 17.3993 80.7428 17.2041C80.6836 17.1509 80.5653 17.1331 80.4766 17.1449C80.3228 17.1627 80.2341 17.2514 80.24 17.4348C80.2518 17.8784 80.24 18.3161 80.24 18.7597C80.24 18.9549 80.2814 19.1797 80.0034 19.1915C79.82 19.2034 79.5953 19.2093 79.4474 19.1265C79.0629 18.9017 78.9387 18.4462 78.7908 18.0795C78.643 17.7069 78.8618 17.2159 78.4655 16.8847C78.6784 15.8082 77.803 15.0924 77.5664 14.1579C77.4718 13.7911 77.1346 13.7675 77.0045 14.0987C76.7383 14.7789 75.9871 15.2344 76.1054 16.0862C75.2477 16.2577 75.5317 17.1154 75.2063 17.6122C74.8574 18.1387 74.6622 18.7716 74.3132 19.298C74.1121 19.5997 74.0529 19.8718 74.0174 20.2148C73.9879 20.4928 73.2899 20.2681 73.4378 20.8359C73.5147 21.1257 73.3727 21.2559 73.0533 21.2736C72.6688 21.2973 72.5268 21.1494 72.5268 20.7945C72.5268 20.759 72.4618 20.7235 72.45 20.7117C72.0951 21.2854 71.6573 21.8296 71.4089 22.4448C71.2315 22.8825 70.9298 22.7642 70.7169 22.7169C70.3087 22.6281 70.4507 22.2082 70.5276 21.9952C70.6518 21.6581 70.8825 21.3328 71.1427 21.0784C71.4385 20.7886 71.4444 20.4928 71.2965 20.1734C71.261 20.1024 71.0363 20.1143 70.9002 20.0847C70.3383 19.9546 70.427 20.5224 70.3324 20.7294C70.1254 21.2026 70.0307 21.7054 69.5753 22.0426C69.3091 22.2377 69.1494 22.149 68.9601 21.9538C68.7886 21.7764 68.5579 21.5634 68.7945 21.3564C69.3623 20.8596 69.3623 20.0729 69.7645 19.5523C70.2082 18.9727 70.3206 18.2865 70.6814 17.7128C71.3379 16.6599 71.752 15.4828 72.444 14.4595C72.5742 14.2703 72.6037 14.1283 72.4204 13.8858C71.4917 14.8144 70.569 15.7372 69.6463 16.654C69.4037 16.8965 69.1671 17.3401 68.9128 17.3461C68.0433 17.3756 67.6233 18.3279 66.7952 18.2984C66.4462 18.2865 66.1919 18.5054 66.0559 18.6355C65.1982 19.4695 64.1571 19.1679 63.1753 19.1856C62.6902 19.1915 61.6492 17.9612 61.6374 17.4584C61.6196 16.8669 61.6374 16.2814 61.6374 15.6899C61.6374 15.5893 61.5959 15.4473 61.6433 15.4C62.3945 14.6961 62.1224 13.5309 62.8558 12.7974C63.3231 12.3301 63.5538 11.7031 63.3409 10.9046C62.6843 11.4725 62.1815 12.0166 61.8976 12.8033C61.7557 13.2056 61.59 13.7616 61.1168 13.939C60.5372 14.1579 61.034 14.915 60.4544 15.0688C59.9279 15.2048 59.9752 15.6484 59.8214 16.0448C59.6085 16.5948 59.0288 16.9438 58.7035 17.4939C58.4019 18.0085 57.9996 18.4462 57.7571 19.0259C57.5678 19.4814 57.3194 19.9664 56.858 20.2799C56.0536 20.8359 55.8347 21.9124 54.9357 22.3975C54.4684 21.942 55.2492 21.5102 55.1013 21.0488C54.8647 20.966 54.8233 21.1435 54.7286 21.2145C54.5157 21.3801 54.3323 21.7646 54.0307 21.4629C53.8414 21.2736 53.8591 20.9305 54.078 20.6821C54.9179 19.7357 54.9416 18.3457 55.8584 17.4407C56.024 17.2751 56.0477 17.0917 56.0004 16.9143C55.9235 16.6363 56.3789 16.5002 56.2192 16.3405C55.9116 16.0448 55.6987 16.3878 55.5331 16.5948C55.3615 16.8078 55.1309 16.8196 54.9179 16.9024C54.149 17.2041 53.4214 17.5708 52.7116 18.0026C51.7297 18.6059 51.3098 18.3457 51.2861 17.2455C51.2743 16.7546 51.227 16.2695 51.7297 15.9501C51.9841 15.7845 51.8125 15.4947 51.8894 15.2817C52.0846 14.7257 52.2443 14.1697 52.5224 13.6255C52.8832 12.9276 53.2322 12.1172 52.9955 11.224C52.6229 11.3778 52.8477 11.7919 52.5164 11.9397C52.061 12.1409 51.6292 12.3538 51.4577 12.9453C51.3453 13.3357 50.6414 13.3179 50.5467 13.868C50.5231 13.9923 50.3516 14.2052 50.1031 14.1815C49.1863 14.1046 48.7427 15.1161 47.8377 15.1516C47.5419 15.1634 47.3645 15.613 47.4532 15.9915C47.678 16.9261 47.8258 17.9198 48.5356 18.6355C49.4525 19.5523 50.2806 20.5756 51.4163 21.2677C51.6765 21.4274 51.8776 21.5634 52.1911 21.5575C52.4928 21.5516 52.4573 21.6699 52.2976 21.8769C51.8007 22.5158 52.6525 22.3146 52.7944 22.6695C51.4222 22.8588 50.1741 22.6695 49.0621 21.8296C48.9852 21.7705 48.9319 21.6522 48.8491 21.6285C48.4173 21.5102 47.9856 21.3564 47.5478 21.3268C47.3349 21.315 47.6425 22.22 48.1748 22.7169C48.3996 22.9298 48.3405 23.1546 48.3286 23.3734C48.3227 23.6514 48.0861 23.6041 47.8968 23.61C47.3526 23.6278 46.9209 23.5568 46.4654 23.1132C45.4244 22.0899 44.5608 21.0311 44.4898 19.4932C44.472 19.0791 43.7386 19.0673 43.8451 18.4344C43.8865 18.1919 42.8513 18.2865 42.7271 18.6474C42.4195 19.505 42.1948 20.3864 41.5855 21.1376C41.3844 21.3801 41.0591 21.8296 41.2365 22.3028C40.5504 22.3206 40.7456 22.9653 40.5149 23.3912C40.3907 23.2374 40.302 23.125 40.2073 23.0185C40.0535 22.8352 39.9116 22.6459 39.6809 22.9594C39.5094 23.196 39.2964 23.3853 38.9474 23.3261C38.5866 23.267 38.5748 23.5272 38.5925 23.7875C38.6044 23.9827 38.6162 24.1779 38.3323 24.2074C38.0898 24.2311 38.007 24.03 37.8591 23.9176C37.6166 23.7342 37.723 23.474 37.7053 23.2433C37.6659 22.7464 37.38 22.4389 36.8476 22.3206C37.0132 21.9538 37.4924 21.806 37.445 21.2499C37.4214 20.9483 37.7467 20.6052 37.936 20.2917C38.1312 19.9782 38.4742 19.7002 38.5334 19.3631C38.6517 18.6828 39.0243 18.1919 39.3497 17.6241C39.6336 17.1331 39.7578 16.5239 40.0417 15.9974C40.1304 15.8377 40.2014 15.6662 40.3316 15.5301C40.4972 15.3586 40.787 15.1871 40.6391 14.9327C40.4203 14.5601 40.3316 15.0984 40.1127 15.0688C39.882 15.0333 39.7815 14.9741 39.7637 14.7257C39.746 14.4477 39.8879 14.1401 39.5389 13.7911C39.533 14.7967 39.2254 15.5952 38.492 16.1867C38.4151 16.2459 38.3145 16.3228 38.3027 16.3997C38.001 18.393 36.0846 19.1028 35.0554 20.5165C34.8129 20.8477 34.1386 20.339 34.1031 21.1139C34.0912 21.4097 33.4583 21.2559 33.1034 21.4806C32.719 21.7231 32.0624 21.4747 31.7134 22.0426C31.6543 22.1431 31.3585 22.1254 31.1751 22.1254C30.3885 22.1313 29.6018 22.1254 28.8151 22.1254C28.5252 22.1254 28.1881 22.1845 28.265 21.7054C27.2772 21.4333 27.3363 20.6644 27.3718 19.8836C27.3836 19.6588 27.4783 19.3926 27.2594 19.1915C26.9637 20.0847 26.4668 20.5756 25.0236 21.4156C25.3962 21.6522 25.7925 21.5043 26.1711 21.522C26.9341 21.5575 26.9341 21.5398 28.0284 22.3265C28.0698 22.3561 28.0994 22.4152 28.1408 22.4152C29.4302 22.4152 29.9862 23.4976 30.7907 24.2134C30.9622 24.3671 31.0983 24.5919 31.2461 24.7457C31.7134 25.2367 31.2639 25.9879 31.8317 26.4374C32.3877 26.8751 31.9737 27.5435 32.1097 28.0818C32.3818 29.1465 31.7666 30.0041 31.394 30.8855C31.2047 31.335 31.2757 31.6899 31.2284 32.1986C31.8731 31.3942 32.1866 30.5661 32.6066 29.7853C33.0975 28.8625 33.3933 27.8393 34.0972 26.9934C34.5467 26.4611 34.523 25.5856 35.1678 25.0888C35.4044 24.8995 35.5936 24.7516 35.9308 24.7635C36.3212 24.7753 36.5755 24.7812 36.5519 25.2958C36.5341 25.5738 37.2262 25.8104 37.2498 25.6448C37.4095 24.6452 38.492 25.3964 38.8114 24.7753C40.0654 24.8699 41.2602 24.3198 42.5319 24.4618C43.1175 24.5269 43.6439 24.6156 44.058 25.0592C44.3597 25.3786 44.6791 25.6921 44.9985 25.9997C45.5072 26.4847 45.7319 27.0703 45.6905 27.7801C45.661 28.3184 45.7438 28.8685 45.6728 29.4008C45.5722 30.1343 45.4658 30.8914 44.8151 31.4001C44.6613 31.5184 44.5253 31.6663 44.3952 31.8141C43.7445 32.6008 42.9046 33.0326 41.9582 33.4171C41.0946 33.772 40.2961 34.192 39.3319 34.2215C38.634 34.2452 38.4092 34.8189 38.7759 35.4282C39.3319 36.3509 40.1482 37.0312 40.858 37.8119C41.1537 38.1373 41.485 38.0012 41.8044 38.0308C41.8872 38.0367 42.0587 37.9776 42.0587 37.9598C41.9878 37.2263 42.4964 36.9128 43.0288 36.6112C42.7922 35.9901 43.6321 35.8482 43.5966 35.3809C43.5552 34.8189 43.9574 34.6119 44.2532 34.3162C44.5963 33.9672 44.5844 33.2219 44.8861 33.1509C45.6491 32.9616 45.3001 32.2045 45.7556 31.8378C46.1578 31.5125 46.6606 30.9979 46.7848 30.5306C47.051 29.5546 47.7549 28.9454 48.3109 28.2119C48.4883 27.9812 48.5889 27.7387 48.719 27.4903C49.2277 26.5498 49.6654 25.5501 50.4994 24.8463C50.8307 24.5623 50.5467 24.1779 50.8011 23.9294C50.9667 23.7697 51.1028 23.5095 51.3926 23.5923C51.6351 23.6574 51.5878 23.8821 51.5878 24.0714C51.5878 24.3612 51.5878 24.6511 51.5878 24.9823C52.4336 25.2544 53.1434 24.722 53.9124 24.657C53.9479 24.657 53.9774 24.5742 54.0188 24.5623C54.3856 24.4322 54.841 24.3376 55.0835 24.6274C55.2787 24.8581 55.1723 25.2662 54.8529 25.5206C54.7937 25.5679 54.776 25.8045 55.0244 25.9524C55.2965 25.6684 55.6218 25.3845 55.8761 25.0533C56.1778 24.657 56.5741 24.7871 56.9468 24.7753C57.2307 24.7635 57.2603 25.0119 57.1952 25.1834C56.9408 25.8636 56.8699 26.6267 56.3848 27.2063C55.7283 27.993 55.5922 29.0577 54.9416 29.8563C54.6932 30.1579 54.8174 30.5779 54.9475 30.9742C55.3024 30.359 55.7638 29.8444 55.9057 29.1642C56.0359 28.555 56.8166 28.3006 56.858 27.8097C56.9113 27.1176 57.3312 26.9993 57.7571 26.7036C58.2244 26.3782 58.254 25.5856 58.9756 25.4792C59.0466 25.0651 59.2595 24.8522 59.7091 24.7516C60.0935 24.6629 60.0699 24.0477 60.3538 23.8821C61.0991 23.4503 61.7024 22.8233 62.6606 22.6577C63.5124 22.5098 64.3523 22.4211 65.2041 22.4211C65.9849 22.4211 66.3575 22.7642 67.1679 23.332C68.3154 24.1305 68.0906 25.2367 68.1202 26.3191C68.1202 26.467 68.0078 26.5794 67.8244 26.5439C67.6411 26.5084 67.2684 26.5912 67.3039 26.4433C67.5287 25.5679 66.2747 25.6862 66.3339 24.9232C66.3457 24.7635 66.0381 24.7161 65.8547 24.8344C65.7069 24.935 65.7187 25.1716 65.7897 25.2189C66.6178 25.769 66.3043 26.6089 66.3516 27.3542C66.3634 27.5612 66.322 27.7564 66.0499 27.7209C65.837 27.6914 65.4703 27.857 65.4821 27.4784C65.5176 26.5143 64.8965 26.5675 64.2281 26.532C63.5479 26.4906 62.9268 26.6917 62.2821 26.8278C62.0632 26.8751 61.9508 26.9875 61.803 27.1117C61.6374 27.2537 61.5545 27.437 61.6788 27.6086C61.8089 27.7978 62.0041 27.786 62.1756 27.6263C62.3176 27.4903 62.4418 27.3306 62.5956 27.2123C62.8085 27.0526 63.1575 27.0466 63.2699 27.1768C63.7194 27.6914 64.4647 27.8215 64.8255 28.4189C64.8847 28.5136 64.8669 28.6969 64.8137 28.8093C64.7368 28.969 64.5298 28.9454 64.4292 28.8803C64.1217 28.6792 63.9738 28.2888 63.4828 28.2947C62.7849 28.3124 62.152 28.3065 61.6847 28.9749C61.1937 29.6729 60.3361 30.081 60.0107 30.9919C59.4606 30.0869 60.7974 29.5132 60.3656 28.6673C59.3305 29.0755 59.2891 30.2112 58.6976 30.9565C58.1889 31.5953 57.6329 32.2814 57.7571 33.216C56.9408 35.0851 56.8699 35.4873 56.8876 36.8419C56.8935 37.2323 56.9941 37.5931 57.3076 37.6818C57.7453 37.806 58.4669 37.9894 58.6385 37.5694C58.9165 36.8774 59.8629 36.8714 59.9161 35.8896C59.9752 34.8308 60.2118 34.8189 59.2832 34.2334C59.1117 34.1269 58.946 34.0973 58.9697 33.8666C58.9934 33.5886 59.2181 33.5945 59.4015 33.63C59.9102 33.7306 60.1823 33.4999 60.3124 33.0326C60.9157 33.2456 61.383 32.6955 61.9627 32.7369C62.1046 32.7487 62.3117 32.7783 62.3826 32.7014C63.051 31.9561 63.9856 32.0093 64.8433 31.8674C65.1331 31.82 65.3934 31.5894 65.3875 31.4592C65.3697 30.5069 66.535 30.0396 66.3516 29.0459C66.7183 28.7383 66.8071 28.2415 67.1738 27.9043C68.0788 27.0762 68.9305 26.1831 69.7941 25.3076C70.1963 24.8995 70.6341 24.5032 71.2256 24.4973C71.7165 24.4973 71.8052 24.0241 72.1601 23.888C72.799 23.6396 73.4318 23.403 74.0233 23.0304C74.5971 22.6695 75.3483 22.7642 75.993 22.4566C76.3953 22.2673 76.9631 22.3975 77.454 22.4329C77.6966 22.4507 78.081 22.22 78.152 22.6932C78.1993 22.989 77.9154 23.2019 77.7498 23.2433C77.111 23.3793 76.8803 23.9827 76.3243 24.3435C77.3594 24.8522 77.6019 25.7217 77.5664 26.7272C77.5546 27.1531 77.5664 27.5849 77.5664 28.1232C78.5069 27.2182 78.5661 25.9997 79.335 25.1893C79.4829 23.9176 80.6067 23.0659 80.8019 21.8178C80.8492 21.5339 81.0089 21.528 81.2041 21.5398C81.6004 21.5575 81.9494 21.5398 82.2393 21.1671C82.6001 20.6999 83.162 21.0607 83.6293 20.9305C83.9369 21.4865 83.6293 22.0899 83.86 22.7405C84.1439 22.5394 84.0433 22.1254 84.345 21.9834C84.7295 21.806 84.6112 21.4156 84.6822 21.0902C84.7176 20.9305 84.9188 20.7649 85.0903 20.6821C85.2559 20.5993 85.5103 20.617 85.5339 20.8714C85.5694 21.2618 85.599 21.664 85.5339 22.0485C85.4038 22.8411 85.1554 23.6159 85.2382 24.4322C85.25 24.5505 85.1672 24.728 85.0725 24.793C84.3864 25.2662 84.7591 25.9169 84.7472 26.5202C84.9247 25.9997 85.392 25.5797 85.4984 25.142C85.7942 23.9058 86.853 23.0481 87.0245 21.7823C87.894 20.7945 88.0537 19.434 88.8404 18.4048C88.8877 18.3398 89.0001 18.3161 89.0888 18.2924C89.2663 18.251 89.3846 18.3634 89.3846 18.5172C89.3964 19.1974 89.3905 19.8777 89.3905 20.5993C89.8755 20.4928 89.5916 20.1498 89.6862 19.9546C89.7868 19.7535 90.0293 19.6352 89.9938 19.3394C89.982 19.2093 90.189 19.1442 90.3369 19.1797C90.4907 19.2093 90.5853 19.2921 90.5676 19.4754C90.5262 19.9901 90.7155 20.552 90.1476 20.9305C89.8578 21.1257 89.9288 21.457 90.0293 21.7172C90.1121 21.942 90.3783 21.7941 90.5617 21.8296C91.3898 21.9834 92.1173 21.4156 92.9513 21.522C93.3181 21.5694 93.4127 20.9365 93.738 20.9719C94.3887 21.0429 94.9565 20.6289 95.5362 20.688C96.524 20.7886 97.3994 20.2148 98.3695 20.3568C98.4996 20.3745 98.7125 20.3568 98.7658 20.2681C99.2035 19.5937 99.8896 19.7061 100.481 19.8008C100.984 19.8836 101.244 19.434 101.694 19.4695C102.131 19.505 102.752 19.6647 102.989 19.44C103.598 18.8662 104.326 19.0377 104.977 18.8366C105.692 18.6178 106.438 18.7834 107.064 18.5468C107.78 18.2747 108.466 18.3339 109.176 18.2984C109.324 18.2925 109.549 18.3575 109.608 18.2865C110.406 17.2751 111.513 17.8488 112.477 17.7128C112.749 17.6773 113.033 17.7128 113.5 17.7128C112.985 18.4876 112.648 19.0318 111.838 19.2211C111.24 19.3631 110.708 19.8008 110.158 20.1379C109.963 20.2562 110.081 20.4987 110.069 20.6821C110.052 20.9719 110.27 20.9542 110.466 20.9542C110.714 20.9542 110.962 20.9838 111.205 20.9483C111.589 20.895 111.98 21.0311 112.045 21.3505C112.11 21.6581 111.696 21.9657 111.447 22.0366C111.051 22.1549 110.46 22.1904 110.318 22.4507C110.034 22.9771 109.099 22.3265 109.141 23.196C108.667 23.3557 108.194 23.5154 107.579 23.7283C108.147 24.0122 108.691 24.0182 109.034 23.8289C109.365 23.6514 109.649 23.5923 109.981 23.61C110.347 23.6337 110.649 23.5568 110.868 23.2433C111.158 22.8352 111.589 23.0304 111.95 23.0304C112.092 23.0304 112.329 23.2551 112.358 23.4089C112.412 23.7047 112.033 23.5213 111.986 23.6219C111.655 24.3317 110.821 24.1601 110.294 24.6097C109.898 24.9468 109.454 25.4437 108.721 25.4378C108.342 25.4378 108.088 26.0588 107.626 26.2954C107.183 26.5261 106.798 26.8751 106.272 26.9461C106.296 27.6441 105.639 27.5139 105.284 27.7032C104.823 27.9516 104.628 28.4781 104.048 28.6437C103.433 28.8211 103.267 29.738 102.463 29.7971C101.806 29.8444 101.646 30.7317 100.954 30.779C100.481 31.5716 99.5347 31.6426 98.8426 32.1099C98.3221 32.4589 98.0145 33.2515 97.1805 33.0681C97.1096 34.0914 95.9621 33.7661 95.5303 34.3931C95.1221 34.9786 94.2645 34.9964 93.7735 35.4223C93.1879 35.931 92.4485 36.1262 91.8985 36.6112C91.3247 37.1199 90.5853 37.4097 90.118 38.0485C90.0234 38.1787 89.9642 38.3029 89.9997 38.4389C90.0411 38.5868 90.1772 38.6341 90.3369 38.6282C90.7805 38.6164 91.2241 38.6045 91.6678 38.6282C92.0286 38.6459 92.3362 38.5927 92.5609 38.2792C92.6733 38.1195 92.8212 37.9953 93.046 38.0367C94.1166 38.226 95.1044 37.7055 96.1691 37.6995C96.8493 37.6995 97.5414 37.3742 98.263 37.4511C98.5114 37.4807 98.5765 37.2441 98.7243 37.1317C98.8722 37.0193 98.9669 36.8123 99.2035 36.8596C100.357 37.0962 101.439 36.3095 102.764 36.6644C102.463 36.8774 102.374 37.1613 101.972 37.1672C101.22 37.1672 100.818 37.8947 100.144 38.0958C99.9192 38.1609 100.055 38.4448 100.037 38.6282C100.002 38.9121 100.209 38.9417 100.41 38.9239C101.209 38.853 101.972 38.4744 102.8 38.6341C103.202 37.5872 104.06 38.2674 104.71 38.0958C104.196 38.5572 103.752 39.1132 103.048 39.2079C102.699 39.2552 102.693 39.4267 102.687 39.687C102.676 39.9946 102.776 40.1365 103.101 40.1069C103.249 40.0951 103.409 40.0655 103.539 40.1069C103.853 40.2075 104.456 39.7816 104.432 40.4441C104.415 40.941 103.882 40.6215 103.586 40.6807C103.421 40.7162 103.285 40.7635 103.291 40.9114C103.297 41.2663 103.101 41.3195 102.829 41.2781C101.274 41.0593 99.7772 41.7276 98.2275 41.5798C98.0855 41.5679 97.8548 41.5384 97.8075 41.6094C97.2042 42.4966 96.2933 42.1713 95.5184 42.1299C94.8205 42.0944 94.2526 42.4729 93.5724 42.4848C92.9277 42.4966 92.2533 42.2304 91.5968 42.7095C91.307 42.9225 90.7391 42.7509 90.2955 42.7509C89.8578 42.7509 89.4082 42.6977 89.1302 43.1591C89.0592 43.2833 88.935 43.372 88.7635 43.3424C87.6456 43.1236 86.5927 43.6855 85.4925 43.6382C85.1021 43.6204 84.7117 43.5909 84.4515 43.9931C84.3805 44.0996 84.2149 44.2297 84.1143 44.2179C83.2862 44.0877 82.5587 44.6319 81.7247 44.5373C80.9202 44.4426 80.1749 45.0223 79.335 44.8271C79.1102 44.7739 79.0274 45.0341 78.8855 45.1465C78.7376 45.2648 78.637 45.4423 78.4004 45.4068C77.1583 45.2234 75.9694 45.9805 74.7036 45.6434C74.7568 45.0341 75.4548 45.2057 75.6855 44.8212C76.4012 44.9809 76.5905 43.999 77.2766 44.0818C77.3357 44.0877 77.4067 43.9458 77.4836 43.8866C77.6315 43.7742 77.5901 43.6204 77.5605 43.4903C77.5428 43.4312 77.4067 43.3484 77.3357 43.3543C77.0163 43.4016 76.6673 43.2123 76.3657 43.514C76.0404 43.8334 75.6441 43.5258 75.23 43.7033C75.4015 43.1236 75.721 43.0408 76.1291 43.0467C76.5254 43.0467 76.3716 42.7095 76.3953 42.5025C76.4248 42.2541 76.2829 42.1713 76.0522 42.1713C75.4784 42.1713 74.9047 42.1713 74.3191 42.0471C74.952 42.0471 75.4015 41.426 76.0581 41.5857C76.5668 41.7099 76.2178 40.9646 76.6733 40.9824C76.9927 40.9942 77.2943 40.9942 77.6433 40.8345C78.1757 40.5861 78.8559 40.6689 79.2581 40.1129C79.9088 40.3376 80.4175 39.6752 81.0563 39.8171C81.287 39.8703 81.3934 39.6811 81.5354 39.5569C82.4877 38.7288 83.4755 37.948 84.6526 37.4689C85.0844 37.2914 85.2618 36.7886 85.6463 36.6644C86.2082 36.487 86.433 35.9487 86.8825 35.718C87.3143 35.4992 87.8644 35.4933 87.9827 34.884C88.8522 34.9786 88.9469 33.6182 89.8933 33.8607C90.3724 33.1687 91.2596 32.9675 91.7565 32.2992C93.0341 32.1809 93.6375 30.779 94.9033 30.6311C95.0393 29.8267 95.9088 29.9627 96.3406 29.5132C96.7665 29.0755 97.3284 28.7738 97.7602 28.342C98.2097 27.8984 98.8663 27.9457 99.3454 27.4607C99.7122 27.0821 100.162 26.5202 100.86 26.5557C101.108 26.5675 101.167 26.4433 101.203 26.2126C101.274 25.7513 101.729 25.7335 102.143 25.5087C101.079 25.0888 100.168 25.6921 99.233 25.7158C99.1857 26.6622 98.328 26.0825 97.914 26.4019C97.4881 26.7331 96.8552 26.603 96.3229 26.81C95.9857 26.9461 95.5835 26.8929 95.3232 27.2537C95.0393 27.6381 94.4892 27.2359 94.2585 27.4844C93.8741 27.8866 93.389 27.5612 93.046 27.7919C92.697 28.0285 92.3598 28.2178 91.9576 28.3834C91.3484 28.6437 90.6977 28.6496 90.0944 28.8685C89.7395 28.9986 89.3905 29.0341 89.1007 29.3357C88.7635 29.6847 88.4027 29.5842 88.101 29.247C88.0241 29.1583 87.8289 28.969 88.0419 28.9572C88.935 28.9099 88.7044 27.8215 89.4023 27.6381C89.1716 27.2418 88.7103 27.6381 88.4914 27.2892C88.3909 27.1354 88.1779 27.0585 88.2016 26.816C88.2312 26.532 88.4323 26.5439 88.6215 26.5616C88.8286 26.5794 88.9942 26.5439 89.1362 26.3723C89.5798 25.84 90.2423 25.7394 90.958 25.5561C89.8164 25.0355 88.8286 25.6803 87.8053 25.6862C87.6633 25.6862 87.5687 25.8518 87.616 26.0115C87.752 26.4433 87.4149 26.8219 87.2374 27.0171C86.6045 27.7032 86.3384 28.4485 86.433 29.3535C86.4626 29.6374 86.4034 29.8208 86.0544 29.8089C85.9066 29.8089 85.8592 29.945 85.8297 30.1106C85.6877 30.9742 85.7291 31.8851 85.0075 32.5831C84.8537 32.7309 85.0785 33.2751 84.9306 33.4053C84.4811 33.8016 84.8478 34.3753 84.5579 34.7361C84.2799 35.0792 83.9605 35.3631 84.0374 35.86C84.0374 35.8896 83.8955 35.9664 83.8067 35.9842C83.647 36.0256 83.4873 35.9369 83.4814 35.7949C83.4637 35.1088 83.4755 34.4226 83.4696 33.7306C83.4696 33.5354 83.4755 33.3402 83.1857 33.3343C82.9077 33.3284 82.9609 33.5531 82.8603 33.6951C82.4936 34.2274 82.5705 35.0201 81.8844 35.3572C81.8607 35.369 81.8134 35.3454 81.6774 35.3217V29.6078C81.281 30.1047 81.6004 30.8382 80.8611 30.7849C80.9025 31.2759 80.6955 31.7845 80.4115 32.0507C80.0685 32.3701 80.5003 32.9912 80.0093 33.0208C79.2345 33.0681 79.8792 33.772 79.4474 34.0382C79.2167 34.186 79.057 34.6415 78.8027 34.9195C78.7199 35.0082 78.7613 35.2626 78.6844 35.2981C78.2289 35.511 78.6844 36.2267 78.2585 36.2563C77.4777 36.3036 78.081 36.9897 77.6906 37.2618C77.4481 37.4334 77.2707 37.8533 77.0518 38.155C76.8507 38.4389 77.0696 38.9239 76.62 39.1605C76.3775 39.2907 76.1291 39.2552 76.0877 38.9831C76.064 38.8411 76.0699 38.6873 76.0877 38.5395C76.1409 38.1491 75.9694 38.0071 75.5908 38.0544C75.2655 38.0958 75.2123 37.9184 75.1768 37.6286C75.1531 37.4275 74.745 37.3979 74.7272 37.5221C74.6208 38.2082 73.9938 38.3147 73.5679 38.64C73.3609 38.7997 73.5383 39.1191 73.2426 39.2197C72.9054 38.5158 73.2603 37.9302 73.6448 37.4215C73.9938 36.9602 74.1712 36.4751 74.3605 35.9428C74.5498 35.4104 74.6562 34.8071 75.1531 34.328C75.4489 34.0382 75.7742 33.3579 75.3128 32.6836C74.6089 33.8844 73.5916 34.7657 72.6629 35.7239C71.9354 36.4751 70.9357 36.8005 70.0958 37.3742C69.6167 37.6995 68.9542 37.2855 68.3627 37.6167C68.6584 38.4626 69.2204 38.847 70.2496 38.5631C69.9893 39.0422 69.806 39.2552 69.4215 39.2374C69.0784 39.2197 68.7353 39.2374 68.3864 39.2374C67.8481 39.2374 67.1974 39.4149 66.7952 39.1783C66.2806 38.8766 65.7719 38.5631 65.2455 38.2733C64.6954 37.9716 64.7605 37.2914 64.5948 36.7886C64.3109 35.8955 64.1394 34.9609 64.3523 33.6537C63.8436 34.2748 63.6011 34.677 63.3113 34.9432C62.9505 35.2803 63.4296 35.9132 62.7967 36.0019C62.1697 36.0848 62.7967 36.8833 62.2348 37.0075C62.3294 37.5339 61.7083 37.6345 61.6078 38.0781C61.3712 39.1073 60.7087 39.9591 60.3361 40.941C60.1113 41.5325 59.4784 41.9997 59.3542 42.5912C59.1294 43.6619 58.3072 44.4249 58.0824 45.4659C58.047 45.6315 57.9878 45.7203 57.8163 45.7321C57.5678 45.7498 57.5323 45.602 57.4732 45.389C57.2543 44.5964 56.9823 44.419 56.2902 44.555C56.2015 44.5728 56.0477 44.6556 56.0536 44.6615C56.2725 45.2944 55.403 45.3595 55.4325 45.8563C55.4562 46.2763 55.261 46.3295 54.912 46.3295C54.5689 46.3295 54.5334 46.158 54.5275 45.8741C54.5157 45.46 54.7878 45.1347 54.983 44.8922C55.7224 43.9576 56.0359 42.9166 56.0181 41.6094L56.0359 41.6389ZM20.0727 27.786C20.7056 28.1527 21.5278 27.8629 21.9773 28.6614C22.0128 28.7265 22.2553 28.6614 22.4032 28.6733C22.6871 28.6851 22.7463 28.9868 22.6516 29.0696C22.0069 29.6137 21.9537 30.4655 21.5219 31.1043C21.2616 31.4947 20.9245 31.8733 20.9186 32.3169C20.9126 32.8611 19.9781 32.8611 20.3034 33.5176C19.9722 33.6892 20.0727 34.1269 19.7947 34.3339C19.5226 34.535 20.0313 35.1443 19.3038 35.1798C18.9015 35.1975 19.2683 35.7653 18.9903 36.0374C18.0794 36.9306 17.9965 38.297 17.2099 39.2611C16.9318 39.6042 17.198 40.1247 16.7721 40.4145C16.6834 40.4737 16.8076 40.7398 16.9437 40.7339C17.3104 40.7162 17.754 40.9291 18.0202 40.5151C18.2213 40.2016 18.5762 40.0774 18.8483 40.0241C20.0668 39.7994 20.8003 38.9299 21.5988 38.1313C22.0838 37.6463 22.5688 37.1613 23.0539 36.6763C23.5744 36.1557 24.1541 35.6825 24.5918 35.1029C24.8816 34.7184 24.8816 34.1328 25.1478 33.7247C25.7984 32.7309 25.9108 31.6663 25.9522 30.5128C25.9818 29.6197 25.3193 29.1879 25.0354 28.5254C24.4557 28.4603 24.2309 27.7505 23.5744 27.7742C22.4091 27.8156 21.238 27.786 20.0727 27.786ZM20.5637 12.7264C21.1906 12.7264 21.7762 12.8743 22.2376 12.6969C23.8465 12.0817 25.5736 11.7386 27.0287 10.7153C27.2358 10.5675 27.5256 10.2421 27.9219 10.3841C28.1408 10.461 28.3419 10.2717 28.3833 10.1179C28.5607 9.44954 29.2232 9.28392 29.655 8.91719C30.2997 8.36118 30.4121 7.7401 30.353 6.97707C30.3116 6.46247 29.8679 6.0425 29.5899 6.01884C28.679 5.95378 27.6971 5.73492 26.8513 6.10757C25.7038 6.61626 24.5326 6.96524 23.2964 7.14269C23.1367 7.16635 22.9711 7.20184 22.977 7.3438C23.0065 8.34935 22.0956 8.92902 21.8649 9.83993C21.6224 10.8041 20.8003 11.5434 20.5696 12.7264H20.5637ZM74.6089 27.6736C74.6326 26.2363 74.5202 26.1831 73.0651 26.5853C72.6511 26.6977 72.3612 26.7805 72.2548 27.2359C72.2134 27.4015 72.0714 27.6086 71.9235 27.6736C71.2788 27.9339 70.6577 28.3598 70.5453 28.9808C70.427 29.6433 69.5871 30.0041 69.8947 30.779C69.9183 30.8322 69.8237 30.9387 69.7705 31.0156C69.0429 32.0566 68.901 32.4825 69.0134 33.3106C69.0843 33.8134 69.6403 34.2038 70.0485 33.9376C70.3915 33.7128 70.8056 33.6064 71.1013 33.2515C71.5982 32.6541 72.1779 32.1217 72.7457 31.5834C73.6448 30.7376 73.7631 29.4245 74.5853 28.5254C74.7272 28.3657 74.603 27.9635 74.603 27.6736H74.6089ZM38.0365 12.4721C37.9774 11.8983 38.1785 11.437 37.7112 11.1116C37.1138 10.6976 36.6406 11.1945 36.1201 11.295C35.9604 11.3246 35.8362 11.5494 35.6942 11.6854C35.0317 12.342 34.4106 13.0459 33.6949 13.6433C33.3341 13.9449 33.1626 14.3708 33.0502 14.708C32.926 15.0747 32.8254 15.3823 32.577 15.7017C32.2162 16.169 32.3581 16.9734 32.7722 17.3875C33.2631 17.8784 33.4642 17.8488 34.2923 17.5353C34.6295 17.4052 34.8661 17.2159 35.0968 16.9912C35.6587 16.4411 36.1911 15.8614 36.7707 15.329C37.6639 14.5069 37.9419 13.454 38.0306 12.4662L38.0365 12.4721ZM37.4391 32.7605C38.3619 32.867 39.048 32.7783 39.6099 32.2459C40.8166 32.1513 41.414 31.3114 42.0883 30.43C42.5556 29.8149 42.5083 29.2174 42.4018 28.6673C42.3012 28.1409 41.7985 27.6381 41.2365 27.5258C40.6273 27.4015 39.953 27.4193 39.3497 27.5553C39.1722 27.5967 38.6813 27.6381 38.6103 28.0581C38.421 29.1583 37.6047 29.9864 37.2853 31.0274C37.2321 31.199 37.1848 31.3942 37.0724 31.5243C36.7885 31.8496 36.3212 32.1454 36.5696 32.6186C36.7707 32.9971 37.2735 32.7309 37.445 32.7664L37.4391 32.7605ZM65.8133 14.4891C65.7246 15.0806 65.7778 15.4414 66.1268 15.5893C66.5113 15.7549 66.949 15.8614 67.3158 15.4887C67.9013 14.8972 68.4633 14.2762 69.0962 13.7379C69.4688 13.4185 69.3505 12.963 69.5457 12.5845C69.806 12.0876 70.3797 11.8037 70.4389 11.1945C70.5039 10.5261 70.9239 10.0233 71.2137 9.45545C71.4444 9 71.9472 8.43807 71.5805 7.78742C71.1132 7.92938 70.6341 8.04177 70.1786 8.22513C69.9302 8.32569 69.664 8.38484 69.4511 8.61552C68.8951 9.23068 68.3331 9.86359 67.6825 10.3723C67.0141 10.8928 67.2507 11.9752 66.3693 12.3124C66.322 13.1523 65.9435 13.9035 65.8193 14.4832L65.8133 14.4891ZM15.3111 23.1605C15.6187 22.9535 15.8494 23.0954 16.1629 22.9712C16.8904 22.6814 17.5411 22.1313 18.2331 21.9538C19.3747 21.664 20.0136 20.8655 20.7115 20.1261C21.2025 19.6115 21.4686 18.813 21.096 18.1742C20.7529 17.5886 20.2265 16.9675 19.3274 17.1745C19.0908 17.2278 18.8365 17.21 18.594 17.1745C18.0971 17.1095 18.0143 17.281 17.896 17.7838C17.7481 18.4226 17.1211 18.9372 16.9082 19.5701C16.506 20.7708 15.7311 21.7882 15.3052 23.1605H15.3111ZM35.6114 9.01774C34.6709 8.86987 33.8251 9.39039 32.9142 9.23068C32.7959 9.20702 32.5888 9.43179 32.4883 9.58558C31.6897 10.7745 30.8971 11.9575 29.306 12.1704C29.2291 12.1823 29.1759 12.3124 29.0931 12.3715C28.4069 12.8447 27.7385 13.3239 26.8395 13.3534C26.3899 13.3712 26.0883 13.7911 25.9345 14.1756C25.8162 14.4832 26.2125 14.6488 26.4017 14.844C26.7685 15.2167 27.0997 15.6011 27.3481 16.0743C27.5256 16.4115 27.8036 16.3405 28.052 16.0684C28.1881 15.9205 28.2117 15.7372 28.2886 15.5775C28.5962 14.9209 29.0103 14.3176 29.3415 13.661C29.6787 12.9926 30.4062 12.5253 30.9622 11.9693C31.1337 11.7978 31.3526 11.6499 31.4768 11.4429C31.9382 10.6621 33.0739 10.6976 33.4288 9.79852C34.2687 9.88133 34.8129 9.05323 35.6055 9.00591L35.6114 9.01774ZM45.5841 12.3479C46.2406 12.5194 46.8144 12.4129 47.3763 12.4544C47.6011 12.4721 47.7549 12.3656 47.8554 12.2059C48.0624 11.8747 48.2458 11.5671 48.6599 11.3778C49.1508 11.1531 49.0029 10.603 48.8965 10.2244C48.8077 9.92865 48.4824 9.71571 48.0743 9.79261C47.8377 9.83401 47.5833 9.83401 47.3467 9.79261C46.98 9.72754 46.6724 10.0115 46.6665 10.2007C46.6251 11.0466 46.004 11.5908 45.5959 12.3479H45.5841ZM48.1039 36.0256C48.5889 36.0493 48.9438 36.0729 49.0976 35.4755C49.1804 35.162 49.6477 34.9491 49.5294 34.4936C50.0913 34.0441 49.7778 33.1095 50.5704 32.731C50.8721 32.589 50.8484 31.9443 50.6118 31.7017C50.2569 31.3409 50.0676 31.8733 49.831 32.0566C49.6891 32.1631 49.482 32.2755 49.5353 32.5121C49.6418 32.9912 49.275 33.2101 48.997 33.4585C48.4588 33.9376 48.0979 34.5528 47.6425 35.091C47.4118 35.3631 47.4118 35.647 47.4946 35.8896C47.5892 36.1557 47.9205 35.9901 48.0979 36.0256H48.1039Z" fill="#F5F1F1"/>
<path d="M90.1003 15.9619C89.8341 15.6958 90.1476 15.335 89.8223 15.0984C89.5679 15.6307 89.5975 16.2754 89.1302 16.7013C88.9232 16.8965 88.7339 16.9616 88.521 16.7368C88.3317 16.5357 88.03 16.3701 88.3258 16.0211C88.5032 15.8082 88.9114 15.6603 88.7872 15.3468C88.6215 14.915 89.5265 14.5719 88.9114 14.2525C88.5092 14.0396 88.308 14.637 88.0182 14.8736C87.687 15.1457 87.4385 15.5538 86.9062 15.4059C86.7997 15.9738 86.291 15.9442 85.8947 16.1098C85.4748 16.2814 85.0903 16.5416 84.6762 16.725C83.7062 17.1509 82.9017 16.6777 82.9136 15.6425C82.9254 14.6488 82.7657 13.6492 83.1561 12.6555C83.3099 12.2651 83.44 11.9043 83.6411 11.5257C83.9132 11.017 83.9664 10.3841 84.0729 9.79261C84.1143 9.55601 84.0729 9.33124 84.2977 9.14196C84.7472 8.75748 84.8241 8.20147 85.0134 7.66912C85.2677 6.94749 85.8119 6.32642 86.2319 5.66394C86.6223 5.8828 86.7524 6.21995 86.9239 6.60443C87.0008 6.37966 87.0245 6.17855 87.131 6.04842C87.2729 5.87097 87.4149 5.61662 87.7106 5.6876C88.0596 5.77633 87.9236 6.07799 87.9176 6.29093C87.9058 7.27874 87.4267 8.16007 87.2848 9.1183C86.8589 9.21294 86.5868 9.43179 86.7465 9.89908C86.8885 10.3013 86.3738 10.4373 86.433 10.81C86.4862 11.1353 86.3857 11.4843 86.7347 11.7268C87.0541 11.9516 87.3025 11.8806 87.6515 11.7327C88.1128 11.5375 88.5387 11.2595 88.7458 10.8632C89.1598 10.0884 90.053 9.61516 90.124 8.63918C90.9639 7.69278 91.1472 6.3974 91.8689 5.37411C92.2829 4.79444 92.277 3.94268 92.9395 3.46948C92.8626 2.85432 93.3476 2.98445 93.6138 3.0436C94.8796 3.33935 95.0748 3.76523 94.223 4.77669C93.8208 5.25581 93.945 5.86505 93.5369 6.2791C93.5132 6.30276 93.5842 6.49796 93.6375 6.50979C93.7617 6.53936 93.9805 6.55119 94.0219 6.49204C94.1816 6.21995 94.3118 5.9242 94.4064 5.62254C94.4596 5.451 94.3413 5.16708 94.5602 5.11385C94.8382 5.04287 95.1872 5.00146 95.4297 5.11385C95.7254 5.24989 95.6722 5.8059 95.5303 5.84731C94.7022 6.08982 94.9447 6.90018 94.6489 7.40886C94.2822 8.03585 93.7853 8.67467 93.6434 9.33124C93.5192 9.92865 92.9158 10.1416 92.8863 10.7922C92.8626 11.2773 92.4899 11.7919 92.2888 12.2946C92.0522 12.8625 91.4312 13.2765 91.4667 14.0159C90.5853 14.3649 90.9047 15.5124 90.1062 15.9679L90.1003 15.9619Z" fill="#F5F1F1"/>
<path d="M98.8012 14.5187C99.3158 14.5187 99.7062 14.5069 100.097 14.5246C100.244 14.5305 100.327 14.6429 100.321 14.8263C100.321 15.0096 100.227 15.1161 100.073 15.1043C99.3691 15.051 98.7776 15.2758 98.3044 15.7963C98.1565 15.956 97.9909 15.962 97.7957 16.0034C96.9913 16.1571 96.1158 16.1217 95.4829 16.8137C95.3883 16.9143 95.1162 16.8729 94.9269 16.8729C94.4833 16.8788 94.0456 16.8729 93.602 16.8729C93.1228 16.8847 92.4544 16.9675 92.419 16.4056C92.3953 16.0448 93.1228 15.7313 93.531 15.7313C94.1225 15.7313 94.5838 15.2699 95.1694 15.3941C95.4652 15.4592 95.6012 15.2285 95.7668 15.0688C95.9029 14.9387 96.0153 14.773 96.246 14.8026C97.1569 14.915 97.985 14.2644 98.7953 14.5128L98.8012 14.5187Z" fill="#F5F1F1"/>
<path d="M32.2457 44.5491C32.0091 43.65 32.2457 42.9698 32.7603 42.26C33.1093 41.775 33.1981 41.0593 33.275 40.4264C33.3223 40.0419 33.4701 39.7994 33.8132 39.5391C34.0735 40.7694 33.6772 41.8637 33.0738 42.8338C32.7249 43.3957 32.4705 43.9576 32.2457 44.5432V44.5491Z" fill="#F5F1F1"/>
</svg>
