<svg width="66" height="96" viewBox="0 0 66 96" fill="none" xmlns="http://www.w3.org/2000/svg">
<path d="M35.7587 0C38.4002 13.0066 40.9582 25.6172 43.6276 38.7692C45.1865 37.1082 46.4918 35.8091 47.6857 34.4171C48.558 33.3995 48.9508 33.6562 49.4643 34.7326C54.2617 44.7389 59.0963 54.7266 63.9184 64.7205C64.3855 65.6917 64.7567 66.7217 65.3289 67.6249C65.997 68.6796 65.7248 69.3137 64.8247 70.0623C54.9391 78.2931 45.0751 86.5548 35.2174 94.8196C33.3831 96.3569 33.377 96.4095 31.4407 94.8784C21.2674 86.8363 11.1158 78.7694 0.930126 70.7458C0.0578658 70.0592 0.218708 69.5179 0.645559 68.6827C9.43002 51.4819 18.1866 34.2656 26.9526 17.0555C29.5167 12.0199 32.0809 6.98427 34.6544 1.94867C34.9266 1.41356 35.2452 0.900098 35.7587 0.00309312V0ZM31.5953 30.5353C31.3169 30.9219 31.1747 31.0766 31.0819 31.2529C25.2606 42.6943 19.4703 54.1543 13.5965 65.568C12.9314 66.8578 13.1572 67.4919 14.2244 68.3301C20.2621 73.0533 26.2504 77.8353 32.2387 82.6234C32.8728 83.1307 33.2965 83.174 33.9368 82.6142C35.8731 80.9253 37.8774 79.3107 39.8478 77.6621C44.0699 74.1297 48.2889 70.5943 52.5048 67.0527C52.9564 66.6722 53.4884 66.3907 53.077 65.5556C50.7789 60.9066 48.5271 56.236 46.3 51.5561C45.9041 50.7241 45.6133 50.9035 45.1092 51.4231C43.8534 52.716 42.5635 53.9749 41.2861 55.2462C40.0643 56.4618 38.8394 57.6743 37.4011 59.1033C35.4339 49.4157 33.5378 40.0899 31.5984 30.5415L31.5953 30.5353Z" fill="#F5F1F1"/>
</svg>
