<svg width="112" height="54" viewBox="0 0 112 54" fill="none" xmlns="http://www.w3.org/2000/svg">
<path d="M22.3179 14.142C24.8141 14.7675 25.0529 16.5359 25.0302 18.4009C25.0131 19.6746 24.8539 20.9426 24.8027 22.2106C24.7743 22.9782 24.9051 23.7117 25.5305 24.2178C27.1852 23.9505 27.9016 21.568 26.8895 19.9305C25.8945 18.327 26.537 15.9843 28.2144 15.1143C29.5847 14.4036 30.6253 14.8187 31.7568 16.6439C31.7568 15.4441 32.2515 14.5799 32.8087 13.8122C33.5877 13.3346 34.2416 13.7156 34.8443 13.9771C35.1855 13.8407 35.4414 13.7213 35.7086 13.636C37.767 12.9593 39.2169 14.1022 38.9781 16.2629C38.9042 16.9055 38.6199 17.5252 38.4379 18.1564C38.2503 18.8217 37.9035 19.4813 38.3413 20.3683C39.6946 19.015 41.2412 19.2652 42.7139 19.8793C43.3621 19.396 43.2143 18.7762 43.2882 18.2417C44.0956 12.2599 46.5747 7.02873 50.6062 2.58222C53.0682 -0.135728 56.9291 -0.135727 59.0443 2.5083C60.7274 4.61215 60.3578 6.93207 59.2945 9.18376C58.7543 10.3267 58.0834 11.4013 57.2873 12.385C57.6398 12.9252 58.089 13.1128 58.7202 13.1185C58.8282 12.095 59.3912 11.2762 59.9711 10.4859C60.6193 9.61022 61.5348 9.28611 62.6038 9.49081C63.6614 9.68982 63.7638 10.5768 63.9685 11.4184C64.3551 13.0276 63.7979 14.614 63.923 16.2118C63.9741 16.86 63.8547 17.5707 64.6508 17.929C65.4923 17.9858 65.8335 17.4399 65.9017 16.7235C66.0098 15.5692 66.2031 14.4434 65.6003 13.2777C64.8555 11.8335 66.4703 9.36571 68.0909 9.23493C69.2736 9.13827 69.7 10.0196 70.1322 10.8555C70.968 10.8043 71.1045 10.139 71.4172 9.64433C71.9688 8.78573 72.7136 8.24556 73.7826 8.43888C74.8459 8.62652 74.9596 9.5363 75.1359 10.3722C75.4316 11.7937 74.88 13.1868 74.9994 14.6026C75.0677 15.393 75.0449 16.2402 76.04 16.4619C76.7564 16.2231 76.7451 15.6659 76.7451 15.1541C76.7394 13.5962 76.7451 12.0382 76.6655 10.4859C76.5176 7.60871 77.5013 6.6762 80.3501 7.11403C80.9869 6.96619 81.2655 6.14739 82.1696 6.13602C82.4596 6.227 82.8974 6.36346 83.375 6.5113C84.9273 5.41957 86.3944 4.21412 88.1457 3.46925C88.7882 3.19632 89.4705 2.73574 90.1301 3.31572C90.8522 3.94688 90.6873 4.80548 90.3689 5.55035C89.6411 7.23912 88.7882 8.87671 88.0661 10.5655C87.3951 12.1405 86.4057 13.6587 86.7412 15.6716C88.6688 16.3653 90.6816 16.4278 92.6888 16.5359C98.0338 16.8315 103.032 18.2417 107.393 21.4316C111.254 24.2519 112.954 28.6813 111.464 32.5934C110.429 35.3113 108.911 37.8302 106.574 39.7635C102.531 43.1069 97.7722 44.6365 92.6945 45.3813C85.4732 46.439 78.2576 46.0523 71.0704 45.08C60.8184 43.6926 50.5948 42.0209 40.2632 41.3329C34.8785 40.9746 29.5904 41.5887 24.507 43.5106C23.6883 43.8234 22.8581 44.1475 22.1928 44.7104C22.4089 45.2733 22.9036 45.3017 23.2334 45.5519C24.3024 46.365 24.9164 47.4681 24.5753 48.7532C24.0465 50.7433 22.8865 52.3582 20.8793 53.1315C18.059 54.2175 15.4889 52.5629 15.1534 49.5094C14.8009 46.2911 16.393 43.9712 18.7925 42.1346C22.4714 39.3143 26.8156 38.2396 31.2962 37.5516C37.6988 36.5679 44.0899 36.7158 50.5152 37.381C57.7536 38.1316 64.9976 38.7798 72.2588 39.2461C77.8709 39.6043 83.4888 39.9625 89.118 39.7749C92.6149 39.6555 96.0607 39.2631 99.2847 37.6483C104.789 34.8905 105.613 28.7553 100.894 24.8319C96.4985 21.17 91.3924 20.2034 85.8485 21.0165C85.6154 21.0506 85.3879 21.1132 85.1548 21.1643C83.6992 21.5055 82.3061 21.5453 81.2939 20.1977C80.225 18.7762 81.004 17.5196 81.7204 16.2743C82.8519 14.3126 83.5684 12.1746 84.5862 9.81491C82.9145 10.3608 81.9535 11.5947 80.4638 11.896C79.5654 15.1826 79.753 18.4293 80.4183 21.7045C80.731 23.2568 81.402 24.6556 82.0843 26.0487C83.1078 28.1355 82.7951 30.0915 81.4929 31.911C80.6741 33.0596 79.4005 33.2871 78.087 33.3212C75.4998 33.3894 73.0377 32.6843 70.5416 32.1442C69.3588 31.8883 68.1932 31.4391 66.9252 31.5926C66.7148 32.2749 67.4654 32.599 67.3972 33.2643C66.7546 35.7832 65.4866 36.8693 62.8881 37.0228C59.5504 37.2218 56.3946 36.5168 53.4378 34.9929C51.4761 33.9808 51.2771 33.0141 52.3575 31.1263C53.5117 29.1192 55.4734 28.3004 57.4863 27.5953C60.9719 26.3785 64.5769 26.6685 68.1591 26.93C70.6098 27.1063 73.0491 27.3906 75.4998 27.5669C76.3357 27.6294 77.2057 27.6123 77.9903 26.8845C77.7288 25.0707 76.6427 23.416 76.7223 21.3861C75.6761 21.6135 74.8914 22.2333 73.9134 22.131C72.9411 22.0286 72.3668 21.3235 71.656 20.6696C70.7235 21.9149 69.791 23.0919 68.1932 21.8012C67.3289 22.0912 66.8854 22.819 66.2372 23.2796C65.4184 23.8652 64.5825 24.3883 63.6045 24.6215C61.1709 25.2015 59.4992 23.6548 59.8631 21.1814C59.8972 20.9596 59.9086 20.7322 59.8119 20.4536C59.0329 21.7614 58.4416 23.1545 57.6398 24.4395C55.9852 27.0835 53.7619 28.9258 50.6971 29.648C48.1157 30.2564 46.0289 29.3693 44.6244 27.1404C44.3799 26.7538 44.2491 26.2647 43.7544 26.0657C43.1574 26.2079 43.0266 26.7708 42.7423 27.1802C42.0031 28.2435 41.1275 29.159 39.9732 29.7674C37.9774 30.8193 36.4876 30.2677 35.6916 28.1639C35.1855 26.8277 34.9865 25.4346 35.0036 24.0017C35.0149 22.8929 35.1684 21.7671 34.7079 20.664C34.2075 21.9376 34.344 23.2625 34.5202 24.5646C34.7249 26.0771 34.5202 27.4475 33.673 28.7553C32.3254 30.825 30.8868 31.1946 28.7944 29.8925C28.4361 29.6707 28.095 29.4319 27.6969 29.1646C26.3607 30.137 24.9904 30.916 23.2561 30.7681C21.2376 30.5919 20.3278 29.4433 20.6348 27.4361C20.8509 26.0202 21.5048 24.6556 21.2546 23.0407C20.3164 23.3648 20.4586 24.0699 20.4188 24.684C20.1743 28.8064 19.6853 32.8833 17.7577 36.6191C16.2338 39.5815 14.4313 42.3507 11.3267 43.9541C8.55759 45.387 6.19787 45.0743 3.89501 42.9875C-0.460532 39.0414 -1.24521 33.0198 1.95605 28.09C2.60995 27.0835 3.406 26.242 4.55459 25.7701C7.87526 24.394 10.5477 25.7985 11.213 29.3239C11.5826 31.2912 11.4916 33.1847 10.0246 34.7143C10.5022 35.2203 10.8548 34.9531 11.1618 34.8052C12.8449 33.9978 14.13 32.781 14.8123 31.024C16.3589 27.0494 16.1826 23.0805 14.6588 19.1401C14.5792 18.9354 14.4199 18.7534 14.2039 18.4123C13.6466 19.4073 13.2145 20.3171 12.6516 21.1416C10.7297 23.9562 7.25548 24.4054 4.62851 22.2163C1.89351 19.9418 1.00648 15.9616 2.41094 12.2372C4.11108 7.72812 6.61295 6.31229 11.321 7.205C13.857 7.68832 16.3248 8.61515 19.0029 8.14889C21.2262 7.75655 22.8865 6.82404 23.6087 4.53255C23.9157 3.55454 24.3876 2.60496 25.1098 1.82597C25.775 1.10384 26.6052 0.819534 27.5491 1.04129C28.5499 1.27442 29.0161 2.05341 29.1867 2.98593C29.5449 4.89645 28.9991 6.63071 28.0154 8.25124C26.6052 10.5712 24.888 12.6182 22.3008 14.1705L22.3179 14.142ZM56.3718 16.7349C56.0193 18.1507 55.6099 19.1117 54.939 19.9134C54.1088 20.9085 52.4655 21.1018 51.2999 20.4365C50.0887 19.7428 49.4917 18.3099 49.975 16.8941C50.7313 14.6651 51.9992 12.8627 54.5409 12.3225C54.1998 10.611 55.3654 9.741 56.2638 8.74025C55.7805 7.7793 55.0697 7.79067 54.3192 8.11478C53.1592 8.61515 52.2381 9.42826 51.6353 10.5314C50.4469 12.6921 49.5997 14.9836 49.2529 17.4399C49.0937 18.5487 49.3552 19.595 49.7589 20.6128C50.0376 21.3122 50.5322 21.7784 51.2885 21.9433C53.8415 22.4949 56.7869 19.7428 56.3832 16.7349H56.3718ZM60.426 32.0361C61.2448 33.2927 62.2456 33.3496 63.3885 33.162C63.8377 32.5877 64.4176 32.1044 64.5086 31.1548C63.07 31.1263 61.7566 31.1491 60.4203 32.0418L60.426 32.0361ZM70.4278 12.5727C69.5181 14.813 69.5294 16.8315 70.4108 17.5082C71.4684 16.1492 71.5196 13.8009 70.4278 12.5727Z" fill="#F5F1F1"/>
</svg>
