<svg width="86" height="96" viewBox="0 0 86 96" fill="none" xmlns="http://www.w3.org/2000/svg">
<path d="M9.49554 93.4661C9.89143 89.6912 9.91374 85.8911 10.2734 82.1162C10.4295 80.4573 10.449 78.7873 10.5382 77.1284C10.725 73.6184 11.015 70.1111 11.238 66.6038C11.3914 64.2061 11.2826 61.7861 11.6869 59.4024C11.7092 59.2658 11.7064 59.1264 11.712 58.987C11.7733 57.4563 11.6451 57.3978 10.0754 57.5288C7.30696 57.7602 4.56078 58.1756 1.80903 58.5353C0.704986 58.6803 0.61577 58.5855 0.58789 57.4759C0.529342 55.2956 0.836021 53.1322 1.0033 50.9659C1.15664 48.9836 1.2598 46.993 1.37132 45.0135C1.61108 40.7172 2.00698 36.4321 2.20493 32.1358C2.3053 29.9639 2.48651 27.7949 2.58967 25.623C2.74859 22.2523 3.06921 18.8872 3.30061 15.5193C3.44001 13.4896 3.58777 11.4572 3.64632 9.42196C3.71602 7.01592 3.87773 4.61546 4.15374 2.22615C4.31265 0.854452 4.40187 0.837724 5.79587 0.653716C7.67498 0.405584 9.55408 0.121209 11.4499 0.012477C12.3337 -0.0377069 12.4341 0.026417 12.3337 0.913C11.9155 4.59037 11.4667 8.26495 11.0345 11.9423C10.5912 15.7117 10.173 19.4811 9.71579 23.2476C9.2251 27.2902 8.68981 31.3272 8.19354 35.3671C7.86456 38.0296 7.57182 40.6977 7.25399 43.363C6.94173 45.9809 6.61832 48.5989 6.29771 51.2168C6.2754 51.4008 6.22243 51.582 6.20849 51.766C6.136 52.7251 6.36183 52.99 7.27908 52.8896C9.02715 52.6972 10.7697 52.4686 12.5149 52.2512C13.7556 52.0978 14.9907 51.9194 16.2341 51.7883C17.1681 51.6908 17.2936 51.8079 17.2434 52.753C17.2099 53.397 17.0622 54.0355 16.9925 54.6795C16.5101 59.0483 16.0557 63.4199 15.5539 67.7859C15.1635 71.1872 14.6366 74.5746 14.3188 77.9844C13.9647 81.7621 13.3012 85.5036 13.0419 89.2925C12.922 91.0433 12.6237 92.783 12.3616 94.5228C12.2027 95.5655 10.9453 96.2625 9.98065 95.9056C9.61821 95.7718 9.51227 95.4735 9.50111 95.1361C9.48717 94.5813 9.49832 94.0237 9.49832 93.4689L9.49554 93.4661Z" fill="#F5F1F1"/>
<path d="M23.0451 34.84C23.4995 34.5055 23.5218 34.0622 23.6027 33.6691C24.4084 29.6293 25.1918 25.5839 25.9976 21.5413C26.4492 19.2719 26.9483 17.0108 27.3832 14.7386C27.57 13.7656 27.9575 13.1885 29.0644 13.0993C30.9072 12.9515 32.7362 12.6337 34.5734 12.419C35.3569 12.327 35.5743 12.5249 35.6022 13.339C35.6496 14.6884 35.3848 16.0183 35.1784 17.3398C34.4508 22.0543 34.0744 26.8078 33.4694 31.5363C32.9536 35.5733 32.5271 39.6215 32.0113 43.6613C31.8524 44.9075 31.791 44.9521 30.581 45.1082C29.4324 45.2588 28.2809 45.3592 27.1351 45.5264C26.491 45.6212 26.2987 45.4233 26.399 44.782C26.781 42.3119 27.1323 39.8361 27.5003 37.3632C28.0746 33.5185 28.6657 29.6739 29.2261 25.8265C29.2902 25.386 29.4157 24.9148 29.1787 24.4548C28.6964 24.452 28.7214 24.8479 28.6545 25.1295C27.5282 29.8579 26.4074 34.5891 25.2894 39.3204C24.874 41.0768 24.4363 42.8304 24.0571 44.5952C23.8424 45.6045 23.2765 46.1259 22.2561 46.1928C21.6567 46.2318 21.0545 46.2764 20.4578 46.36C19.8723 46.4437 19.5685 46.2318 19.5545 45.6352C19.5462 45.2197 19.5378 44.8016 19.5378 44.3834C19.5294 38.6847 19.5266 32.986 19.5127 27.2874C19.5127 26.7576 19.6326 26.1945 19.2032 25.5532C18.7516 26.5151 18.6958 27.4184 18.6596 28.305C18.5508 31.1766 18.1298 34.0176 17.904 36.8753C17.773 38.5369 17.5973 40.1958 17.5527 41.8574C17.5165 43.1594 17.2711 44.4363 17.2265 45.7327C17.2098 46.2346 17.0425 46.6611 16.4849 46.7615C15.1634 46.9985 13.8558 47.3386 12.5037 47.3386C11.6533 47.3386 11.4303 47.0877 11.5223 46.2179C11.631 45.1612 11.8513 44.1129 11.974 43.0563C12.565 37.9542 13.1282 32.8494 13.7192 27.7474C14.1681 23.886 14.6365 20.0246 15.1132 16.1688C15.2471 15.0927 15.5398 14.7247 16.5825 14.6522C18.5257 14.5156 20.4383 14.1503 22.3732 13.9607C23.2542 13.8743 23.3685 13.9496 23.3685 14.8278C23.3685 16.4476 23.4689 18.0702 23.2235 19.6845C23.1956 19.8685 23.1594 20.0525 23.1538 20.2365C23.0339 24.82 22.914 29.4007 22.8025 33.9841C22.797 34.2546 22.7579 34.5445 23.0423 34.8428L23.0451 34.84Z" fill="#F5F1F1"/>
<path d="M61.6086 46.0087C61.9321 46.0087 62.2582 45.9892 62.5817 46.0115C65.5035 46.2206 67.43 48.2168 67.5833 51.1414C67.6502 52.449 67.4105 53.7231 67.2599 55.0084C66.7246 59.5528 66.181 64.1001 65.6206 68.6417C65.5035 69.6036 65.4031 70.5849 65.141 71.5133C63.9924 75.5894 61.1793 77.8979 57.1144 78.6506C54.6163 79.1134 52.0737 79.3337 49.5478 79.6376C48.5329 79.7574 48.3935 79.6041 48.5134 78.6116C49.0013 74.6192 49.5868 70.6351 49.9743 66.6316C50.4204 62.0286 51.1983 57.4646 51.5579 52.8505C51.6806 51.2864 52.0291 49.7419 52.2298 48.1834C52.3302 47.4083 52.7456 47.0291 53.4816 46.9511C56.1944 46.6667 58.8792 46.1454 61.6086 46.006V46.0087ZM61.2518 53.9183C61.2211 52.8979 61.3215 52.1228 60.4461 51.7353C59.2751 51.2167 57.9926 51.8635 57.7528 53.1181C57.6831 53.4806 57.6385 53.8486 57.5939 54.2166C57.0698 58.4822 56.5484 62.7507 56.0299 67.0191C55.818 68.7616 55.5866 70.5041 55.4026 72.2522C55.2994 73.2279 55.528 73.4231 56.4704 73.32C58.2714 73.1192 59.0688 72.2466 59.2946 70.3033C59.7323 66.5396 60.1896 62.7758 60.6384 59.012C60.8531 57.2221 61.0706 55.4322 61.2518 53.9239V53.9183Z" fill="#F5F1F1"/>
<path d="M70.1092 14.8501C70.0368 17.6743 69.5963 20.4623 69.2394 23.2587C68.8491 26.3311 68.5006 29.4118 68.1186 32.4842C67.8426 34.6895 67.1261 36.7191 65.5788 38.3724C63.9255 40.14 61.7899 41.0099 59.4758 41.4113C57.29 41.7905 55.0792 42.008 52.8766 42.2951C52.7846 42.3063 52.6926 42.3146 52.6006 42.3202C51.4241 42.376 51.1453 42.1279 51.2624 40.9931C51.452 39.1531 51.6778 37.3186 51.8953 35.4813C52.411 31.1655 52.9296 26.8496 53.4482 22.5366C53.7688 19.8741 54.0922 17.2115 54.41 14.549C54.5578 13.3083 54.7251 12.0705 54.831 10.827C54.8896 10.1579 55.213 9.8122 55.8431 9.7174C56.8021 9.57243 57.764 9.42467 58.7259 9.30757C60.1031 9.14029 61.486 9.02598 62.8605 8.84197C64.023 8.68585 65.1661 8.72209 66.3092 8.96186C68.5396 9.43024 69.9615 11.0473 70.1009 13.3167C70.1316 13.8241 70.1065 14.3343 70.1065 14.8445L70.1092 14.8501ZM63.9645 16.1633C64.0063 15.0731 63.4682 14.3845 62.5231 14.3204C61.2797 14.234 60.5213 14.7135 60.3959 15.7757C59.9693 19.3583 59.5372 22.9409 59.0437 26.5179C58.7147 28.8988 58.645 31.3132 58.1989 33.683C58.0958 34.2267 58.0567 34.7843 57.9954 35.3363C57.9452 35.7907 58.1348 36.0054 58.6171 36.0361C60.2676 36.142 61.2546 35.5064 61.7592 33.92C61.9125 33.4377 62.0185 32.933 62.077 32.4284C62.4618 29.2139 62.827 25.9965 63.1978 22.782C63.4515 20.5766 63.7052 18.3686 63.9589 16.1633H63.9645Z" fill="#F5F1F1"/>
<path d="M43.8352 39.2813C43.8352 38.2637 43.8129 37.2433 43.8435 36.2285C43.8603 35.6932 43.6344 35.4116 43.1242 35.4534C42.575 35.5008 42.0285 35.6179 41.4877 35.7406C41.0611 35.8382 40.9552 36.2006 40.8827 36.5825C40.523 38.4951 39.9961 40.3686 39.7034 42.2979C39.4608 43.901 39.1625 44.1185 37.551 44.2663C36.6282 44.3499 35.7109 44.4837 34.7881 44.5479C33.5614 44.6315 33.2659 44.3137 33.5196 43.0869C33.9963 40.7729 34.5261 38.47 35.0363 36.1643C36.4721 29.699 37.9079 23.2308 39.3521 16.7683C39.6643 15.3687 40.0351 13.9803 40.339 12.5751C40.4729 11.9534 40.7461 11.6105 41.4152 11.5185C43.9829 11.1644 46.5702 10.9748 49.1268 10.5148C50.0775 10.3447 50.3061 10.5454 50.3173 11.5212C50.3424 13.5119 50.4176 15.5137 50.2671 17.4959C50.1388 19.2105 50.1137 20.9196 50.1026 22.6314C50.0831 26.108 50.1026 29.5819 50.058 33.0585C50.0189 35.8354 49.9102 38.6122 49.8154 41.389C49.7792 42.4457 49.5952 42.6771 48.5302 42.8388C47.2505 43.0312 45.954 43.1232 44.6716 43.3044C43.9857 43.402 43.7237 43.1204 43.7209 42.4819C43.7209 41.4169 43.7209 40.3519 43.7209 39.2841H43.8352V39.2813ZM43.7766 22.1658C43.2915 24.5468 42.8371 26.7409 42.3966 28.9351C42.2878 29.4704 42.285 29.9778 43.0099 30.0698C43.6261 30.1479 44.0192 29.8495 44.1669 29.1665C44.2255 28.8988 44.2366 28.6172 44.2394 28.344C44.2617 26.7326 44.2896 25.1239 44.2868 23.5124C44.2868 23.1249 44.4179 22.6816 43.7766 22.1658Z" fill="#F5F1F1"/>
<path d="M47.5488 57.236C47.5488 58.301 47.5655 59.366 47.546 60.4338C47.4317 66.4531 47.2282 72.4696 47.2672 78.4889C47.2756 79.7881 47.0525 80.0195 45.7589 80.1282C44.5573 80.2286 43.3668 80.3903 42.1819 80.5966C41.1949 80.7695 41.128 80.6719 41.1448 79.5929C41.1754 77.7389 41.2033 75.8877 41.1977 74.0337C41.1949 72.7512 41.0723 72.6704 39.8288 72.8488C38.3763 73.0607 38.3177 73.0913 38.0194 74.4937C37.6347 76.3059 37.2945 78.1265 36.9126 79.9387C36.6617 81.1291 36.6226 81.157 35.3875 81.3605C34.3365 81.5334 33.2854 81.6979 32.226 81.8233C30.5559 82.0213 30.5169 81.9711 30.8515 80.3736C31.0606 79.3755 31.2753 78.3802 31.4983 77.3876C32.7613 71.7392 34.0326 66.0935 35.2955 60.445C36.0344 57.1468 36.7453 53.843 37.5036 50.5476C37.8661 48.978 37.9135 48.9696 39.511 48.7577C41.7581 48.4622 44.0052 48.1555 46.2579 47.8879C47.4261 47.7485 47.5655 47.8656 47.5767 49.0309C47.6018 51.7632 47.585 54.4982 47.585 57.2304C47.5711 57.2304 47.5599 57.2304 47.546 57.2304L47.5488 57.236ZM41.3455 59.511C41.0667 59.5919 40.9747 59.8037 40.9496 60.0379C40.8214 61.287 40.4059 62.4719 40.1745 63.6986C39.9933 64.6521 39.8316 65.6084 39.7173 66.573C39.6392 67.2338 39.8706 67.3871 40.5119 67.2784C41.2563 67.1529 41.4793 66.6706 41.4821 65.9903C41.4933 64.2339 41.4933 62.4802 41.7051 60.7322C41.7553 60.3167 41.8724 59.7926 41.3427 59.5138L41.3455 59.511Z" fill="#F5F1F1"/>
<path d="M67.101 70.9753C66.9783 69.5701 67.2739 68.3434 67.3993 67.0999C67.4634 66.4671 67.7868 66.074 68.4392 65.9931C69.9559 65.8035 71.4698 65.6167 72.9865 65.4271C73.6054 65.3491 73.6779 65.6864 73.611 66.1855C73.4883 67.1027 73.3851 68.0228 73.2848 68.9428C73.2485 69.2634 73.1983 69.5924 73.2346 69.9102C73.3851 71.2568 74.4251 71.781 75.6462 71.1676C76.4213 70.7801 76.8311 70.1138 76.9928 69.3248C77.2437 68.1008 77.4361 66.8658 77.3887 65.6028C77.3469 64.5099 76.8646 63.746 75.872 63.3194C74.9799 62.9347 74.0794 62.5667 73.1677 62.2237C72.5571 61.9951 71.9716 61.7414 71.414 61.3929C69.836 60.4115 68.9857 59.0398 68.9913 57.1468C68.9968 55.1088 68.9968 53.0819 69.4541 51.0662C70.4327 46.7392 73.5887 44.1129 77.6731 43.4577C78.8719 43.2654 80.0485 43.1761 81.2557 43.4382C83.5808 43.9428 85.2592 45.8331 85.3931 48.1862C85.4906 49.9064 85.301 51.6071 85.0864 53.3105C85.0111 53.9099 84.7072 54.2194 84.1133 54.2919C82.6887 54.4647 81.2696 54.685 79.8421 54.816C79.0002 54.8941 78.858 54.7073 78.9249 53.8681C79.003 52.9007 79.1145 51.9332 79.2121 50.9658C79.3096 49.99 79.0476 49.3683 78.4119 49.0616C77.701 48.7159 77.0123 48.9027 76.2986 49.6304C75.3563 50.5894 74.7764 54.554 75.4287 55.7277C75.7995 56.3968 76.3627 56.868 77.0848 57.144C78.1219 57.5427 79.1619 57.9414 80.1934 58.3484C82.159 59.1235 83.4219 60.4255 83.5641 62.6615C83.8011 66.4308 83.5641 70.0775 81.1525 73.2335C80.0819 74.6303 78.6991 75.6507 77.0653 76.239C74.9548 76.9973 72.7885 77.4155 70.533 76.7604C68.3723 76.1303 67.4105 74.5773 67.1149 72.4947C67.0369 71.951 67.1038 71.3851 67.1038 70.9725L67.101 70.9753Z" fill="#F5F1F1"/>
<path d="M30.2911 77.8365C30.1573 78.8513 30.0541 79.9136 29.8673 80.9591C29.6777 82.0325 29.4881 82.2611 28.4454 82.3252C26.0366 82.4757 23.6807 82.9971 21.2859 83.2174C20.7338 83.2675 20.1874 83.3874 19.6354 83.4432C18.6373 83.5435 18.3557 83.2787 18.4672 82.2806C18.6401 80.7165 18.8854 79.1636 19.0415 77.5995C19.4291 73.7354 20.0647 69.8991 20.3965 66.0266C20.6056 63.5843 20.9764 61.1587 21.2691 58.7248C21.5312 56.5669 21.7961 54.4118 22.0386 52.2511C22.1752 51.055 22.3063 50.8878 23.5692 50.726C24.8071 50.5671 26.0478 50.4249 27.2884 50.2911C28.1917 50.1935 28.3953 50.3803 28.2949 51.2613C28.1276 52.7334 27.9324 54.1999 27.7568 55.6692C27.2243 60.1244 26.6946 64.5768 26.1621 69.032C25.9139 71.0979 25.6602 73.1638 25.4093 75.2297C25.3814 75.4584 25.3452 75.6898 25.3396 75.9212C25.3201 76.9332 25.5682 77.1758 26.5635 77.0782C27.439 76.9918 28.3088 76.8663 29.1815 76.7827C30.1851 76.6879 30.3218 76.8245 30.2883 77.8421L30.2911 77.8365Z" fill="#F5F1F1"/>
</svg>
