<svg width="112" height="42" viewBox="0 0 112 42" fill="none" xmlns="http://www.w3.org/2000/svg">
<path d="M55.9432 41.1261C38.8497 41.1261 21.7595 41.1261 4.66599 41.1261C2.13182 41.1261 0.924762 40.104 0.275806 37.6445C0.0778747 36.8982 0.00648955 36.1811 0.00648955 35.438C0.00324478 25.707 0.00648955 15.9759 0 6.24803C0 5.22268 0.171973 4.25574 0.626242 3.33097C1.5218 1.51714 3.17988 1.08559 4.96775 0.887657C5.23383 0.858454 5.50639 0.884412 5.7757 0.884412C39.2586 0.884412 72.7447 0.884412 106.228 0.884412C107.026 0.884412 107.795 0.939573 108.59 1.16022C110.605 1.71832 111.99 3.33422 111.993 5.41412C112 15.7942 112.006 26.171 111.987 36.551C111.984 38.5985 110.949 40.0391 109.122 40.9444C108.807 41.1002 108.509 41.1132 108.191 41.1197C107.759 41.1294 107.328 41.1229 106.896 41.1229C89.9128 41.1229 72.9264 41.1229 55.9432 41.1229V41.1261ZM81.2719 21.1188C81.1292 22.738 81.5153 24.2176 82.1156 25.7654C82.9722 27.9686 84.494 29.432 86.4701 30.3535C88.9815 31.5216 91.6293 32.0213 94.4847 31.434C97.1486 30.8824 99.3681 29.7305 101.185 27.7609C101.61 27.3001 101.996 26.755 102.249 26.1839C103.385 23.6206 103.534 20.9728 102.95 18.2245C102.318 15.2458 100.621 13.1367 98.0085 11.7317C96.1071 10.7064 93.985 10.3072 91.8791 10.3754C90.4449 10.4208 88.9653 10.6285 87.5441 11.1768C85.289 12.0464 83.6861 13.5163 82.4985 15.5897C81.5056 17.3257 81.0935 19.1428 81.2687 21.1253L81.2719 21.1188ZM48.8339 10.635C46.6372 10.635 44.765 10.635 42.896 10.635C42.5617 10.635 42.5033 10.8913 42.3379 11.1022C40.4818 13.4417 38.9957 16.031 37.3506 18.51C37.0651 18.9384 36.8574 19.3732 36.2474 19.6976C36.2474 17.8643 36.2474 16.1933 36.2474 14.5222C36.2474 13.5488 36.2409 12.5753 36.2474 11.6019C36.2539 11.0308 36.0365 10.6447 35.4265 10.6382C33.9177 10.6252 32.4056 10.6252 30.8968 10.6415C30.3809 10.6479 30.1343 10.9757 30.1278 11.4851C30.1245 11.7544 30.1278 12.027 30.1278 12.2963C30.1278 18.244 30.1278 24.1916 30.131 30.1426C30.131 30.5092 30.0466 30.8921 30.2738 31.3042H36.2507C36.2507 29.6753 36.2442 28.1178 36.2539 26.5571C36.2539 26.2456 36.1695 25.9016 36.4161 25.6291C37.0326 24.9444 37.6556 24.263 38.2722 23.5816C38.6713 23.8769 38.9568 24.1722 39.1839 24.5551C40.3715 26.5668 41.5883 28.5624 42.7986 30.5611C43.1653 31.1647 43.6682 31.421 44.4113 31.3886C45.8098 31.3269 47.2148 31.3788 48.6165 31.3626C48.9085 31.3594 49.2719 31.5086 49.5121 31.0576C49.3725 30.7688 49.2622 30.3957 49.0416 30.1166C47.974 28.783 47.2277 27.2417 46.264 25.8465C45.0213 24.0489 44.1484 22.0306 42.8538 20.2752C42.4936 19.7885 42.4547 19.3504 42.9609 18.9124C43.1523 18.7469 43.2237 18.4549 43.3794 18.2407C45.1089 15.8234 46.8416 13.4125 48.8371 10.6285L48.8339 10.635ZM8.75441 10.6707C8.75441 15.249 8.7609 19.6717 8.75441 24.0943C8.75117 26.1904 9.62077 27.9426 11.0971 29.3022C13.0602 31.1063 15.523 31.7195 18.1448 31.6871C18.8262 31.6773 19.5044 31.4664 20.163 31.3302C22.1132 30.9246 23.7583 29.9576 25.014 28.306C26.1432 26.8199 26.5163 25.1618 26.5325 23.3837C26.565 20.0903 26.5423 16.7968 26.5423 13.5034C26.5423 13.0166 26.5488 12.5299 26.5423 12.0464C26.5228 10.7323 26.4514 10.6479 25.1989 10.635C24.0665 10.622 22.9373 10.622 21.8049 10.6382C21.4512 10.6447 21.0456 10.4922 20.7244 10.901C20.7244 14.0452 20.7244 17.2284 20.7244 20.4147C20.7244 21.8035 20.7666 23.1858 20.4324 24.5616C20.2604 25.2722 20.0495 26.0509 19.42 26.2845C18.6672 26.5636 17.8625 27.1087 16.9961 26.7518C16.3991 26.5052 15.7566 26.4078 15.3705 25.6356C14.8838 24.6557 14.5723 23.7017 14.5755 22.6212C14.582 19.0584 14.5853 15.4924 14.5691 11.9296C14.5691 11.5208 14.7216 11.0698 14.3809 10.6707H8.75441ZM73.478 31.3302C73.478 30.6585 73.478 30.1231 73.478 29.591C73.478 27.2158 73.478 24.8374 73.478 22.4622C73.478 21.9884 73.4683 21.5536 73.8252 21.1124C75.9343 18.51 78.0499 15.9045 80.0389 13.2113C80.5841 12.4748 81.4764 11.8875 81.5218 10.6512C79.5457 10.6447 77.5729 10.6415 75.5968 10.6317C75.2691 10.6317 75.1945 10.8653 75.0322 11.0892C73.809 12.7603 72.6084 14.4411 71.5149 16.203C71.2683 16.6021 71.012 17.0337 70.4376 17.0759C69.1365 15.1971 67.7185 13.4125 66.5958 11.4202C66.2941 10.8816 65.8333 10.5831 65.1389 10.6155C63.9026 10.6739 62.6599 10.6155 61.4204 10.6382C60.8071 10.6512 60.1939 10.742 59.4216 10.8134C59.9538 11.5338 60.3561 12.0854 60.765 12.6338C62.0045 14.2918 63.2342 15.9564 64.4867 17.6047C65.3239 18.708 66.1448 19.8242 67.0598 20.8593C67.4881 21.346 67.6763 21.797 67.6698 22.4362C67.6406 24.9736 67.6504 27.5143 67.6666 30.0517C67.6666 30.4638 67.5238 30.9116 67.8451 31.3334H73.4747L73.478 31.3302ZM57.2249 31.3302C57.4585 27.1801 57.3612 11.9945 57.0886 10.6123C55.2488 10.6966 53.3863 10.5117 51.5401 10.7193C51.3129 14.8434 51.4103 30.0128 51.6698 31.3302H57.2249Z" fill="#F5F1F1"/>
<path d="M97.4342 21.203C97.5964 24.1979 95.7469 26.1513 92.8591 26.8003C91.7007 27.0598 90.5228 26.6737 89.4942 26.1091C88.0178 25.2979 87.3137 23.9935 87.0152 22.2998C86.7556 20.8201 86.8692 19.4671 87.5149 18.1821C88.391 16.4332 89.7927 15.4176 91.8467 15.4663C92.9629 15.4922 94.0239 15.5214 95.059 16.1379C96.7139 17.1243 97.1779 18.6786 97.4309 20.3951C97.4699 20.6579 97.4374 20.9337 97.4374 21.203H97.4342Z" fill="#F5F1F1"/>
</svg>
