<svg width="37" height="29" viewBox="0 0 37 29" fill="none" xmlns="http://www.w3.org/2000/svg">
<path d="M31.1692 2.55711C28.7818 1.43915 26.2626 0.641236 23.6745 0.183272C23.651 0.179242 23.6269 0.182722 23.6055 0.193234C23.5841 0.203745 23.5664 0.220772 23.5548 0.241972C23.2304 0.828974 22.8714 1.59677 22.6206 2.19786C19.8307 1.76585 16.993 1.76585 14.2031 2.19786C13.9233 1.52826 13.6068 0.875261 13.255 0.241972C13.2432 0.221004 13.2255 0.204173 13.2041 0.193696C13.1828 0.183218 13.1588 0.179584 13.1354 0.183272C10.5466 0.638786 8.02691 1.43711 5.64066 2.55711C5.62024 2.56506 5.60316 2.58 5.59234 2.59937C0.819829 9.87586 -0.489504 16.9739 0.152506 23.9827C0.154807 24.0156 0.175517 24.0485 0.20083 24.0696C2.97994 26.1702 6.08844 27.7739 9.39377 28.8126C9.41711 28.8201 9.44219 28.8198 9.46536 28.8118C9.48853 28.8038 9.5086 28.7884 9.52264 28.768C10.2314 27.7818 10.8619 26.7416 11.4049 25.6474C11.4163 25.6249 11.4201 25.5992 11.416 25.5743C11.4118 25.5493 11.3999 25.5264 11.3819 25.5089C11.37 25.4975 11.3559 25.4887 11.3405 25.4831C10.3491 25.0943 9.38893 24.6272 8.46873 24.086C8.44302 24.0712 8.42391 24.0468 8.41534 24.0179C8.40677 23.9891 8.40941 23.958 8.4227 23.931C8.43053 23.9136 8.44237 23.8983 8.45722 23.8864C8.65051 23.7385 8.84381 23.5835 9.0279 23.4286C9.04416 23.4152 9.06367 23.4067 9.08434 23.4038C9.10501 23.4009 9.12607 23.4038 9.14525 23.4121C15.1719 26.2204 21.6955 26.2204 27.6485 23.4121C27.6684 23.4034 27.6902 23.4002 27.7117 23.4031C27.7332 23.406 27.7535 23.4148 27.7705 23.4286C27.9545 23.5835 28.1478 23.7385 28.3411 23.8864C28.3568 23.8981 28.3694 23.9136 28.3778 23.9314C28.3861 23.9493 28.39 23.969 28.3891 23.9888C28.3882 24.0085 28.3825 24.0278 28.3725 24.0447C28.3625 24.0617 28.3486 24.0759 28.3319 24.086C27.4138 24.6322 26.4524 25.0987 25.4578 25.4807C25.442 25.4866 25.4276 25.4959 25.4156 25.5081C25.4037 25.5203 25.3945 25.535 25.3888 25.5512C25.3835 25.5669 25.3814 25.5835 25.3825 25.6C25.3837 25.6166 25.3882 25.6327 25.3957 25.6474C25.948 26.7393 26.5808 27.7818 27.2757 28.768C27.2898 28.7884 27.3098 28.8038 27.333 28.8118C27.3562 28.8198 27.3812 28.8201 27.4046 28.8126C30.7154 27.7772 33.829 26.1732 36.6113 24.0696C36.6253 24.0597 36.6368 24.0468 36.6452 24.0318C36.6536 24.0167 36.6585 24 36.6597 23.9827C37.4282 15.8797 35.3733 8.84039 31.2152 2.60172C31.211 2.59142 31.2048 2.58212 31.1968 2.57444C31.1889 2.56676 31.1795 2.56085 31.1692 2.55711ZM12.3047 19.714C10.4891 19.714 8.99568 18.0141 8.99568 15.929C8.99568 13.8416 10.4615 12.1417 12.3047 12.1417C14.1617 12.1417 15.6413 13.8557 15.6137 15.929C15.6137 18.0141 14.1479 19.714 12.3047 19.714ZM24.5374 19.714C22.7241 19.714 21.2284 18.0141 21.2284 15.929C21.2284 13.8416 22.6942 12.1417 24.5374 12.1417C26.3944 12.1417 27.8763 13.8557 27.8464 15.929C27.8464 18.0141 26.3944 19.714 24.5374 19.714Z" fill="#F6CD58"/>
</svg>
