<svg width="285" height="58" viewBox="0 0 285 58" fill="none" xmlns="http://www.w3.org/2000/svg">
<path d="M39.9985 21.8749C39.956 21.8946 39.9111 21.8987 39.865 21.8982C39.8154 21.8982 39.7657 21.8982 39.7161 21.8982C27.8757 21.8982 16.0353 21.8982 4.19537 21.8982C4.14159 21.8982 4.08781 21.8966 4.03403 21.8992C3.93371 21.9034 3.91457 21.9235 3.9275 22.0193C3.95129 22.1998 3.97663 22.3799 4.00455 22.5594C4.16072 23.5513 4.40945 24.5199 4.74816 25.4647C5.02637 26.2409 5.36198 26.9916 5.75551 27.717C6.16713 28.4751 6.63512 29.1958 7.16051 29.8793C7.45527 30.2627 7.76813 30.6317 8.09598 30.9882C8.31989 31.2319 8.55156 31.4683 8.78995 31.6975C9.18916 32.082 9.60803 32.4442 10.0455 32.7851C10.5942 33.213 11.1666 33.6058 11.7654 33.9602C12.6145 34.4631 13.5024 34.8843 14.4286 35.2253C15.2689 35.5342 16.1294 35.7696 17.009 35.9357C17.3338 35.9973 17.6606 36.05 17.9889 36.0888C18.0949 36.1013 18.1094 36.0899 18.113 35.9781C18.1146 35.9326 18.113 35.8871 18.113 35.8415C18.113 31.7695 18.113 27.6979 18.113 23.6258C18.113 23.3723 18.0991 23.3894 18.3478 23.3894C19.4684 23.3894 20.5895 23.3894 21.7101 23.3894C21.8418 23.3894 21.9078 23.4558 21.9082 23.5886C21.9082 28.993 21.9082 34.3969 21.9082 39.8013C21.9082 39.8675 21.9087 39.9338 21.9092 40H19.2543C19.2207 39.9809 19.1835 39.9788 19.1462 39.9783C18.9896 39.9752 18.8329 39.9664 18.6762 39.9565C18.2475 39.9296 17.8204 39.8867 17.3943 39.8313C16.6517 39.7346 15.9168 39.598 15.1903 39.4174C14.1897 39.168 13.2134 38.8456 12.2634 38.4446C11.405 38.0825 10.5761 37.6633 9.77557 37.1863C9.04644 36.7522 8.34988 36.2705 7.68125 35.7479C7.15017 35.3324 6.64236 34.89 6.15576 34.4243C5.67794 33.9669 5.22857 33.4821 4.79884 32.9787C4.29621 32.3898 3.82873 31.7751 3.39746 31.1325C2.73193 30.1411 2.16258 29.0965 1.68373 28.0032C1.26797 27.0542 0.929259 26.0784 0.668632 25.0756C0.423519 24.1339 0.244079 23.1798 0.14169 22.2117C0.0982521 21.8009 0.0584342 21.3901 0.0439549 20.9767C0.0393009 20.838 0.0403351 20.6957 0 20.5596V18.1014C0.0868756 18.1014 0.173751 18.1014 0.260627 18.1014C12.1212 18.1014 23.9818 18.1014 35.8419 18.1014C35.8956 18.1014 35.9494 18.1034 36.0032 18.1003C36.0885 18.0952 36.104 18.0765 36.0932 17.9917C36.0715 17.8235 36.0487 17.6554 36.0229 17.4882C35.8708 16.5129 35.6335 15.5583 35.3051 14.6274C35.136 14.1473 34.9442 13.6764 34.7311 13.2139C34.3458 12.3772 33.8918 11.5809 33.3706 10.8224C33.0474 10.3515 32.6988 9.8998 32.3281 9.46569C31.9733 9.05021 31.6 8.65179 31.2049 8.27563C30.6593 7.75615 30.0833 7.27288 29.4705 6.83411C28.9761 6.47968 28.4652 6.14957 27.9346 5.85257C27.4796 5.598 27.0137 5.3662 26.5369 5.15457C25.9954 4.91449 25.4411 4.71011 24.8774 4.53057C24.1038 4.28428 23.3147 4.10267 22.5127 3.97745C22.3575 3.95313 22.2019 3.93295 22.0462 3.91122C21.9335 3.8957 21.9144 3.91226 21.9107 4.02505C21.9092 4.07059 21.9107 4.11612 21.9107 4.16165C21.9107 8.22493 21.9107 12.2882 21.9107 16.352C21.9107 16.6076 21.9216 16.5884 21.6755 16.5884C20.5549 16.5884 19.4343 16.5884 18.3132 16.5884C18.1815 16.5884 18.1155 16.522 18.1151 16.3892C18.1151 10.9936 18.1151 5.59748 18.1151 0.201862C18.1151 0.0676783 18.1804 0.00058664 18.3111 0.00058664C19.047 0.00058664 19.7833 -0.00200044 20.5192 0.00369114C20.92 0.00679564 21.3192 0.0378406 21.7189 0.0704379C22.3043 0.119075 22.8855 0.195135 23.4642 0.294997C24.1902 0.420729 24.9059 0.588889 25.6138 0.793269C26.4696 1.04008 27.3038 1.34587 28.1167 1.70858C28.9596 2.08474 29.7745 2.51471 30.559 3.00367C31.3186 3.47711 32.0426 3.99867 32.7324 4.56782C33.0608 4.83895 33.3794 5.12094 33.6901 5.41225C33.9166 5.62439 34.139 5.84067 34.3546 6.06316C34.8469 6.57126 35.3118 7.10368 35.7478 7.66094C36.2711 8.32944 36.752 9.02692 37.1864 9.75648C37.6652 10.5611 38.0867 11.3946 38.4492 12.2577C38.8473 13.2056 39.1695 14.1783 39.4172 15.1759C39.5977 15.9029 39.7347 16.6386 39.8314 17.3822C39.8868 17.8085 39.9261 18.2364 39.9576 18.6648C39.9757 18.9132 39.9716 19.1605 39.9783 19.4084C39.9798 19.4617 39.9736 19.5165 40 19.5667V21.8759L39.9985 21.8749Z" fill="#F6CD58"/>
<path d="M42.6819 57H32.4489V53.3237H42.6819C44.6527 53.3237 46.2571 53.0332 47.4952 52.452C48.7585 51.8456 49.6934 50.8855 50.2998 49.5716C50.9062 48.2325 51.2094 46.4765 51.2094 44.3035C51.2094 42.1053 50.9062 40.3493 50.2998 39.0354C49.6934 37.7216 48.7585 36.7741 47.4952 36.1929C46.2571 35.5865 44.6527 35.2833 42.6819 35.2833H32.4489V31.607H42.6819C45.3349 31.607 47.6089 32.125 49.5039 33.1609C51.4241 34.1716 52.9022 35.6244 53.9382 37.5194C54.9994 39.4144 55.53 41.6758 55.53 44.3035C55.53 46.9313 54.9994 49.1926 53.9382 51.0876C52.9022 52.9826 51.4241 54.4481 49.5039 55.484C47.6089 56.4947 45.3349 57 42.6819 57ZM35.1777 57H31.1224V31.607H35.1777V57Z" fill="#F6CD58"/>
<path d="M70.3287 57.379C67.8021 57.379 65.6544 56.9495 63.8857 56.0904C62.1171 55.2314 60.7653 53.9933 59.8304 52.3762C58.8956 50.7339 58.4281 48.7631 58.4281 46.4638V31.607H62.4834V46.1985C62.4834 47.9167 62.7487 49.3063 63.2793 50.3675C63.8352 51.4287 64.6816 52.212 65.8186 52.7173C66.9809 53.1974 68.4843 53.4374 70.3287 53.4374C72.1985 53.4374 73.7018 53.1974 74.8388 52.7173C76.0011 52.212 76.8475 51.4287 77.3781 50.3675C77.9087 49.3063 78.174 47.9167 78.174 46.1985V31.607H82.2672V46.4638C82.2672 48.7631 81.7998 50.7339 80.8649 52.3762C79.9301 53.9933 78.5783 55.2314 76.8096 56.0904C75.041 56.9495 72.8807 57.379 70.3287 57.379Z" fill="#F6CD58"/>
<path d="M89.9876 57H85.8944V31.607H91.4657L98.7804 46.3122L101.092 51.5803H101.395L103.632 46.3122L110.87 31.607H116.442V57H112.349V41.4231L112.5 37.7468H112.197L110.643 41.4231L103.632 55.484H98.7046L91.6931 41.4231L90.1392 37.7468H89.836L89.9876 41.4231V57Z" fill="#F6CD58"/>
<path d="M124.334 57H120.241V31.607H125.813L133.127 46.3122L135.439 51.5803H135.742L137.978 46.3122L145.217 31.607H150.789V57H146.695V41.4231L146.847 37.7468H146.544L144.99 41.4231L137.978 55.484H133.051L126.04 41.4231L124.486 37.7468H124.183L124.334 41.4231V57Z" fill="#F6CD58"/>
<path d="M167.512 48.4725H163.722L152.428 31.607H157.431L163.419 40.6272L165.541 43.8487H165.844L167.929 40.6272L173.879 31.607H178.92L167.512 48.4725ZM167.626 57H163.57V45.8195H167.626V57Z" fill="#F6CD58"/>
<path d="M191.067 57H186.973V31.607H191.067V57ZM206.719 57H188.186V53.3237H206.719V57Z" fill="#F6CD58"/>
<path d="M212.018 57H207.47L218.803 31.607H224.563L235.895 57H231.272L223.275 38.9975L221.797 35.397H221.493L220.015 38.9975L212.018 57ZM230.021 50.4054H213.08V46.7291H230.021V50.4054Z" fill="#F6CD58"/>
<path d="M252.344 57H237.601V31.607H251.814C253.456 31.607 254.845 31.8471 255.982 32.3271C257.145 32.8072 258.029 33.5147 258.635 34.4495C259.267 35.3844 259.583 36.5214 259.583 37.8605C259.583 39.3513 259.141 40.6146 258.257 41.6505C257.397 42.6865 255.995 43.3181 254.05 43.5455V43.8108C256.223 44.0635 257.84 44.7457 258.901 45.8574C259.962 46.9439 260.493 48.3209 260.493 49.9885C260.493 51.4287 260.177 52.6794 259.545 53.7406C258.913 54.8018 257.991 55.6104 256.778 56.1662C255.566 56.7221 254.088 57 252.344 57ZM241.656 45.63V53.3237H251.889C253.405 53.3237 254.53 53.0205 255.262 52.4141C256.02 51.7825 256.399 50.7844 256.399 49.42C256.399 48.0809 256.02 47.1208 255.262 46.5396C254.53 45.9332 253.405 45.63 251.889 45.63H241.656ZM241.656 35.2833V42.2569H251.245C252.685 42.2569 253.759 41.979 254.467 41.4231C255.174 40.842 255.528 39.9577 255.528 38.7701C255.528 37.5826 255.187 36.7109 254.504 36.155C253.822 35.5739 252.774 35.2833 251.359 35.2833H241.656Z" fill="#F6CD58"/>
<path d="M273.793 57.379C271.292 57.379 269.182 57.0253 267.464 56.3178C265.771 55.6104 264.495 54.6123 263.636 53.3237C262.777 52.0099 262.348 50.4686 262.348 48.6999V48.4725H266.441V49.0789C266.441 50.0896 266.668 50.936 267.123 51.6182C267.578 52.2752 268.336 52.7805 269.397 53.1342C270.458 53.4627 271.924 53.6269 273.793 53.6269C275.41 53.6269 276.699 53.5132 277.659 53.2858C278.619 53.0332 279.302 52.6542 279.706 52.1488C280.135 51.6182 280.35 50.9613 280.35 50.178C280.35 49.0663 279.996 48.2578 279.289 47.7524C278.581 47.2471 277.432 46.8428 275.84 46.5396L269.624 45.5163C268.209 45.2384 266.946 44.8341 265.834 44.3035C264.723 43.7477 263.851 43.0149 263.219 42.1053C262.613 41.1705 262.31 40.0082 262.31 38.6185C262.31 37.7089 262.512 36.812 262.916 35.9276C263.32 35.0433 263.952 34.2474 264.811 33.5399C265.67 32.8325 266.782 32.2766 268.146 31.8723C269.536 31.4428 271.229 31.228 273.225 31.228C275.701 31.228 277.735 31.607 279.327 32.365C280.919 33.123 282.094 34.159 282.852 35.4728C283.635 36.7614 284.026 38.2395 284.026 39.9071V40.1345H279.971V39.6418C279.971 38.6059 279.744 37.7468 279.289 37.0646C278.834 36.3572 278.089 35.8392 277.053 35.5107C276.017 35.157 274.615 34.9801 272.846 34.9801C271.305 34.9801 270.054 35.1065 269.094 35.3591C268.159 35.6118 267.477 35.9908 267.047 36.4961C266.618 36.9762 266.403 37.6079 266.403 38.3911C266.403 39.0986 266.555 39.6797 266.858 40.1345C267.161 40.5893 267.628 40.9557 268.26 41.2336C268.892 41.4863 269.7 41.7263 270.686 41.9537L276.863 43.0149C278.556 43.3181 279.958 43.7729 281.07 44.3793C282.207 44.9857 283.054 45.7564 283.61 46.6912C284.165 47.6261 284.443 48.7126 284.443 49.9506C284.443 51.2392 284.077 52.452 283.344 53.589C282.612 54.726 281.462 55.6483 279.895 56.3557C278.329 57.0379 276.295 57.379 273.793 57.379Z" fill="#F6CD58"/>
</svg>
