<svg width="774" height="774" viewBox="0 0 774 774" fill="none" xmlns="http://www.w3.org/2000/svg">
<path d="M773.52 422.8C772.7 423.18 771.83 423.26 770.94 423.25C769.98 423.25 769.02 423.25 768.06 423.25C539.09 423.25 310.12 423.25 81.16 423.25C80.12 423.25 79.08 423.22 78.04 423.27C76.1 423.35 75.73 423.74 75.98 425.59C76.44 429.08 76.93 432.56 77.47 436.03C80.49 455.2 85.3 473.92 91.85 492.18C97.23 507.18 103.72 521.69 111.33 535.71C119.29 550.36 128.34 564.29 138.5 577.5C144.2 584.91 150.25 592.04 156.59 598.93C160.92 603.64 165.4 608.21 170.01 612.64C177.73 620.07 185.83 627.07 194.29 633.66C204.9 641.93 215.97 649.52 227.55 656.37C243.97 666.09 261.14 674.23 279.05 680.82C295.3 686.79 311.94 691.34 328.95 694.55C335.23 695.74 341.55 696.76 347.9 697.51C349.95 697.75 350.23 697.53 350.3 695.37C350.33 694.49 350.3 693.61 350.3 692.73C350.3 614.03 350.3 535.34 350.3 456.64C350.3 451.74 350.03 452.07 354.84 452.07C376.51 452.07 398.19 452.07 419.86 452.07C422.407 452.07 423.683 453.353 423.69 455.92C423.69 560.37 423.69 664.81 423.69 769.26C423.69 770.54 423.7 771.82 423.71 773.1H372.37C371.72 772.73 371 772.69 370.28 772.68C367.25 772.62 364.22 772.45 361.19 772.26C352.9 771.74 344.64 770.91 336.4 769.84C322.04 767.97 307.83 765.33 293.78 761.84C274.43 757.02 255.55 750.79 237.18 743.04C220.58 736.04 204.55 727.94 189.07 718.72C174.97 710.33 161.5 701.02 148.57 690.92C138.3 682.89 128.48 674.34 119.07 665.34C109.83 656.5 101.14 647.13 92.83 637.4C83.11 626.02 74.07 614.14 65.73 601.72C52.86 582.56 41.85 562.37 32.59 541.24C24.55 522.9 18 504.04 12.96 484.66C8.22003 466.46 4.75003 448.02 2.77003 429.31C1.93003 421.37 1.16003 413.43 0.880029 405.44C0.790029 402.76 0.810029 400.01 0.0300293 397.38V349.87C1.71003 349.87 3.39003 349.87 5.07003 349.87C234.43 349.87 463.79 349.87 693.14 349.87C694.18 349.87 695.22 349.91 696.26 349.85C697.91 349.75 698.21 349.39 698 347.75C697.58 344.5 697.14 341.25 696.64 338.02C693.7 319.17 689.11 300.72 682.76 282.73C679.49 273.45 675.78 264.35 671.66 255.41C664.21 239.24 655.43 223.85 645.35 209.19C639.1 200.09 632.36 191.36 625.19 182.97C618.33 174.94 611.11 167.24 603.47 159.97C592.92 149.93 581.78 140.59 569.93 132.11C560.37 125.26 550.49 118.88 540.23 113.14C531.43 108.22 522.42 103.74 513.2 99.6499C502.73 95.0099 492.01 91.0599 481.11 87.5899C466.15 82.8299 450.89 79.3199 435.38 76.8999C432.38 76.4299 429.37 76.0399 426.36 75.6199C424.18 75.3199 423.81 75.6399 423.74 77.8199C423.71 78.6999 423.74 79.5799 423.74 80.4599C423.74 158.99 423.74 237.52 423.74 316.06C423.74 321 423.95 320.63 419.19 320.63C397.52 320.63 375.85 320.63 354.17 320.63C351.623 320.63 350.347 319.347 350.34 316.78C350.34 212.5 350.34 108.21 350.34 3.9299C350.34 1.33657 351.603 0.0399023 354.13 0.0399023C368.36 0.0399023 382.6 -0.0100977 396.83 0.0999023C404.58 0.159902 412.3 0.759902 420.03 1.3899C431.35 2.3299 442.59 3.7999 453.78 5.7299C467.82 8.1599 481.66 11.4099 495.35 15.3599C511.9 20.1299 528.03 26.0399 543.75 33.0499C560.05 40.3199 575.81 48.6299 590.98 58.0799C605.67 67.2299 619.67 77.3099 633.01 88.3099C639.36 93.5499 645.52 98.9999 651.53 104.63C655.91 108.73 660.21 112.91 664.38 117.21C673.9 127.03 682.89 137.32 691.32 148.09C701.44 161.01 710.74 174.49 719.14 188.59C728.4 204.14 736.55 220.25 743.56 236.93C751.26 255.25 757.49 274.05 762.28 293.33C765.77 307.38 768.42 321.6 770.29 335.97C771.36 344.21 772.12 352.48 772.73 360.76C773.08 365.56 773 370.34 773.13 375.13C773.16 376.16 773.04 377.22 773.55 378.19V422.82L773.52 422.8Z" fill="#F6CD58"/>
</svg>
