<svg width="37" height="33" viewBox="0 0 37 33" fill="none" xmlns="http://www.w3.org/2000/svg">
<path d="M11.7474 32.1818C25.6417 32.1818 33.2423 20.1122 33.2423 9.66386C33.2423 9.32612 33.2423 8.98355 33.2285 8.6458C34.7083 7.52277 35.9854 6.13239 37.0001 4.5398C35.6178 5.17874 34.153 5.59985 32.6532 5.78945C34.233 4.79947 35.4162 3.24182 35.983 1.40601C34.4987 2.32787 32.8742 2.97501 31.1805 3.31909C30.0419 2.04779 28.5351 1.20558 26.8937 0.922938C25.2522 0.640294 23.5677 0.932983 22.101 1.75567C20.6343 2.57836 19.4673 3.88513 18.7807 5.47357C18.0941 7.062 17.9264 8.84346 18.3033 10.542C15.2998 10.3841 12.3614 9.56608 9.67877 8.14098C6.99617 6.71588 4.62926 4.71553 2.73154 2.26968C1.76815 4.01408 1.47414 6.0775 1.90922 8.04092C2.34431 10.0043 3.47586 11.7206 5.0741 12.8411C3.87645 12.7984 2.70513 12.4613 1.65461 11.8568V11.9653C1.65668 13.7927 2.26052 15.5633 3.36407 16.9779C4.46761 18.3924 6.00318 19.3641 7.7112 19.7286C7.06289 19.9159 6.39318 20.0092 5.72072 20.0061C5.24665 20.0076 4.77353 19.9615 4.30782 19.8686C4.79057 21.4416 5.73055 22.817 6.99612 23.802C8.26168 24.7871 9.78944 25.3324 11.3654 25.3617C8.68816 27.5662 5.38108 28.7619 1.97677 28.7561C1.37691 28.7587 0.777472 28.7225 0.181885 28.6475C3.63708 30.9569 7.64976 32.1831 11.7474 32.1818Z" fill="#F6CD58"/>
</svg>
