<svg width="34" height="25" viewBox="0 0 34 25" fill="none" xmlns="http://www.w3.org/2000/svg">
<path d="M13.8 4.2L2.6 4.2M31.4 4.2L20.2 4.2M20.2 4.60313C25.7207 6.02406 29.8 11.0356 29.8 16.9999M4.2 16.9999C4.2 11.0356 8.27927 6.02406 13.8 4.60313M3.56 23.4H4.84C5.73608 23.4 6.18413 23.4 6.52638 23.2256C6.82744 23.0722 7.07221 22.8274 7.22561 22.5264C7.4 22.1841 7.4 21.7361 7.4 20.84V19.56C7.4 18.6639 7.4 18.2159 7.22561 17.8736C7.07221 17.5726 6.82744 17.3278 6.52638 17.1744C6.18413 17 5.73608 17 4.84 17H3.56C2.66392 17 2.21587 17 1.87362 17.1744C1.57256 17.3278 1.32779 17.5726 1.17439 17.8736C1 18.2159 1 18.6639 1 19.56V20.84C1 21.7361 1 22.1841 1.17439 22.5264C1.32779 22.8274 1.57256 23.0722 1.87362 23.2256C2.21587 23.4 2.66392 23.4 3.56 23.4ZM16.36 7.4H17.64C18.5361 7.4 18.9841 7.4 19.3264 7.22561C19.6274 7.07221 19.8722 6.82744 20.0256 6.52638C20.2 6.18413 20.2 5.73608 20.2 4.84V3.56C20.2 2.66392 20.2 2.21587 20.0256 1.87362C19.8722 1.57256 19.6274 1.32779 19.3264 1.17439C18.9841 1 18.5361 1 17.64 1H16.36C15.4639 1 15.0159 1 14.6736 1.17439C14.3726 1.32779 14.1278 1.57256 13.9744 1.87362C13.8 2.21587 13.8 2.66392 13.8 3.56V4.84C13.8 5.73608 13.8 6.18413 13.9744 6.52638C14.1278 6.82744 14.3726 7.07221 14.6736 7.22561C15.0159 7.4 15.4639 7.4 16.36 7.4ZM29.16 23.4H30.44C31.3361 23.4 31.7841 23.4 32.1264 23.2256C32.4274 23.0722 32.6722 22.8274 32.8256 22.5264C33 22.1841 33 21.7361 33 20.84V19.56C33 18.6639 33 18.2159 32.8256 17.8736C32.6722 17.5726 32.4274 17.3278 32.1264 17.1744C31.7841 17 31.3361 17 30.44 17H29.16C28.2639 17 27.8159 17 27.4736 17.1744C27.1726 17.3278 26.9278 17.5726 26.7744 17.8736C26.6 18.2159 26.6 18.6639 26.6 19.56V20.84C26.6 21.7361 26.6 22.1841 26.7744 22.5264C26.9278 22.8274 27.1726 23.0722 27.4736 23.2256C27.8159 23.4 28.2639 23.4 29.16 23.4ZM33 4.2C33 5.08366 32.2837 5.8 31.4 5.8C30.5163 5.8 29.8 5.08366 29.8 4.2C29.8 3.31634 30.5163 2.6 31.4 2.6C32.2837 2.6 33 3.31634 33 4.2ZM4.2 4.2C4.2 5.08366 3.48366 5.8 2.6 5.8C1.71634 5.8 1 5.08366 1 4.2C1 3.31634 1.71634 2.6 2.6 2.6C3.48366 2.6 4.2 3.31634 4.2 4.2Z" stroke="#F6CD58" stroke-opacity="0.4" stroke-width="2" stroke-linecap="round" stroke-linejoin="round"/>
</svg>
