<svg width="34" height="34" viewBox="0 0 34 34" fill="none" xmlns="http://www.w3.org/2000/svg">
<path d="M32.0648 22.3458C27.5478 25.5592 21.6232 25.9161 16.8033 23.4M1.93511 11.6542C6.46303 8.43307 12.4055 8.08221 17.2317 10.6184M22.3979 20.399C27.0166 17.488 29.691 12.1586 29.1616 6.61956M11.5309 13.6459C6.95571 16.5666 4.31135 21.8698 4.83805 27.3805M22.6431 14.0193C22.4303 8.56563 19.152 3.58695 14.0914 1.27555M11.361 20.081C11.6098 25.4954 14.8789 30.4273 19.9084 32.7245M28.3137 5.6863C34.5621 11.9347 34.5621 22.0653 28.3137 28.3137C22.0653 34.5621 11.9347 34.5621 5.6863 28.3137C-0.562099 22.0653 -0.562099 11.9347 5.6863 5.6863C11.9347 -0.562099 22.0653 -0.562099 28.3137 5.6863ZM21.5255 12.4745C24.0249 14.9739 24.0249 19.0262 21.5255 21.5255C19.0262 24.0249 14.9739 24.0249 12.4745 21.5255C9.97517 19.0262 9.97517 14.9739 12.4745 12.4745C14.9739 9.97517 19.0262 9.97517 21.5255 12.4745Z" stroke="#F6CD58" stroke-opacity="0.4" stroke-width="2" stroke-linecap="round" stroke-linejoin="round"/>
</svg>
