<svg width="34" height="34" viewBox="0 0 34 34" fill="none" xmlns="http://www.w3.org/2000/svg">
<path d="M9 12.9056L1 16.9056L16.4276 24.6194C16.6375 24.7243 16.7424 24.7768 16.8525 24.7974C16.95 24.8157 17.05 24.8157 17.1475 24.7974C17.2576 24.7768 17.3625 24.7243 17.5724 24.6194L33 16.9056L25 12.9056M9 20.9056L1 24.9056L16.4276 32.6194C16.6375 32.7243 16.7424 32.7768 16.8525 32.7974C16.95 32.8157 17.05 32.8157 17.1475 32.7974C17.2576 32.7768 17.3625 32.7243 17.5724 32.6194L33 24.9056L25 20.9056M1 8.90557L16.4276 1.19179C16.6375 1.08684 16.7424 1.03437 16.8525 1.01372C16.95 0.995427 17.05 0.995427 17.1475 1.01372C17.2576 1.03437 17.3625 1.08684 17.5724 1.19179L33 8.90557L17.5724 16.6194C17.3625 16.7243 17.2576 16.7768 17.1475 16.7974C17.05 16.8157 16.95 16.8157 16.8525 16.7974C16.7424 16.7768 16.6375 16.7243 16.4276 16.6194L1 8.90557Z" stroke="#F6CD58" stroke-opacity="0.4" stroke-width="2" stroke-linecap="round" stroke-linejoin="round"/>
</svg>
