<svg width="34" height="34" viewBox="0 0 34 34" fill="none" xmlns="http://www.w3.org/2000/svg">
<path d="M4.2 26.6V26.28C4.2 23.5917 4.2 22.2476 4.72317 21.2208C5.18336 20.3177 5.91767 19.5834 6.82085 19.1232C7.84762 18.6 9.19175 18.6 11.88 18.6H22.12C24.8083 18.6 26.1524 18.6 27.1792 19.1232C28.0823 19.5834 28.8166 20.3177 29.2768 21.2208C29.8 22.2476 29.8 23.5917 29.8 26.28V26.6M4.2 26.6C2.43269 26.6 1 28.0327 1 29.8C1 31.5673 2.43269 33 4.2 33C5.96731 33 7.4 31.5673 7.4 29.8C7.4 28.0327 5.96731 26.6 4.2 26.6ZM29.8 26.6C28.0327 26.6 26.6 28.0327 26.6 29.8C26.6 31.5673 28.0327 33 29.8 33C31.5673 33 33 31.5673 33 29.8C33 28.0327 31.5673 26.6 29.8 26.6ZM17 26.6C15.2327 26.6 13.8 28.0327 13.8 29.8C13.8 31.5673 15.2327 33 17 33C18.7673 33 20.2 31.5673 20.2 29.8C20.2 28.0327 18.7673 26.6 17 26.6ZM17 26.6V10.6M7.4 10.6H26.6C28.091 10.6 28.8365 10.6 29.4246 10.3564C30.2087 10.0316 30.8316 9.40868 31.1564 8.62459C31.4 8.03652 31.4 7.29101 31.4 5.8C31.4 4.30899 31.4 3.56348 31.1564 2.97541C30.8316 2.19132 30.2087 1.56837 29.4246 1.24359C28.8365 1 28.091 1 26.6 1H7.4C5.90899 1 5.16348 1 4.57541 1.24359C3.79132 1.56837 3.16837 2.19132 2.84359 2.97541C2.6 3.56348 2.6 4.30899 2.6 5.8C2.6 7.29101 2.6 8.03652 2.84359 8.62459C3.16837 9.40868 3.79132 10.0316 4.57541 10.3564C5.16348 10.6 5.90899 10.6 7.4 10.6Z" stroke="#F6CD58" stroke-opacity="0.4" stroke-width="2" stroke-linecap="round" stroke-linejoin="round"/>
</svg>
