<svg width="34" height="34" viewBox="0 0 34 34" fill="none" xmlns="http://www.w3.org/2000/svg">
<path d="M17 30.5556C18.6984 32.0757 20.9413 33 23.4 33C28.7019 33 33 28.702 33 23.4C33 18.9729 30.0033 15.2457 25.9277 14.1363M8.07229 14.1363C3.9967 15.2457 1 18.9729 1 23.4C1 28.7019 5.29807 33 10.6 33C15.9019 33 20.2 28.7019 20.2 23.4C20.2 22.1512 19.9616 20.9581 19.5277 19.8637M26.6 10.6C26.6 15.9019 22.3019 20.2 17 20.2C11.6981 20.2 7.4 15.9019 7.4 10.6C7.4 5.29807 11.6981 1 17 1C22.3019 1 26.6 5.29807 26.6 10.6Z" stroke="#F6CD58" stroke-opacity="0.4" stroke-width="2" stroke-linecap="round" stroke-linejoin="round"/>
</svg>
