<svg width="34" height="34" viewBox="0 0 34 34" fill="none" xmlns="http://www.w3.org/2000/svg">
<path d="M31.72 33C32.168 33 32.3921 33 32.5632 32.9128C32.7137 32.8361 32.8361 32.7137 32.9128 32.5632C33 32.3921 33 32.168 33 31.72V15.08C33 14.632 33 14.4079 32.9128 14.2368C32.8361 14.0863 32.7137 13.9639 32.5632 13.8872C32.3921 13.8 32.168 13.8 31.72 13.8L27.88 13.8C27.432 13.8 27.2079 13.8 27.0368 13.8872C26.8863 13.9639 26.7639 14.0863 26.6872 14.2368C26.6 14.4079 26.6 14.632 26.6 15.08V18.92C26.6 19.368 26.6 19.5921 26.5128 19.7632C26.4361 19.9137 26.3137 20.0361 26.1632 20.1128C25.9921 20.2 25.768 20.2 25.32 20.2H21.48C21.032 20.2 20.8079 20.2 20.6368 20.2872C20.4863 20.3639 20.3639 20.4863 20.2872 20.6368C20.2 20.8079 20.2 21.032 20.2 21.48V25.32C20.2 25.768 20.2 25.9921 20.1128 26.1632C20.0361 26.3137 19.9137 26.4361 19.7632 26.5128C19.5921 26.6 19.368 26.6 18.92 26.6H15.08C14.632 26.6 14.4079 26.6 14.2368 26.6872C14.0863 26.7639 13.9639 26.8863 13.8872 27.0368C13.8 27.2079 13.8 27.432 13.8 27.88V31.72C13.8 32.168 13.8 32.3921 13.8872 32.5632C13.9639 32.7137 14.0863 32.8361 14.2368 32.9128C14.4079 33 14.632 33 15.08 33L31.72 33Z" stroke="#F6CD58" stroke-opacity="0.4" stroke-width="2" stroke-linecap="round" stroke-linejoin="round"/>
<path d="M13.8 8.68C13.8 8.23196 13.8 8.00794 13.8872 7.83681C13.9639 7.68628 14.0863 7.56389 14.2368 7.48719C14.4079 7.4 14.632 7.4 15.08 7.4H18.92C19.368 7.4 19.5921 7.4 19.7632 7.48719C19.9137 7.56389 20.0361 7.68628 20.1128 7.83681C20.2 8.00794 20.2 8.23196 20.2 8.68V12.52C20.2 12.968 20.2 13.1921 20.1128 13.3632C20.0361 13.5137 19.9137 13.6361 19.7632 13.7128C19.5921 13.8 19.368 13.8 18.92 13.8H15.08C14.632 13.8 14.4079 13.8 14.2368 13.7128C14.0863 13.6361 13.9639 13.5137 13.8872 13.3632C13.8 13.1921 13.8 12.968 13.8 12.52V8.68Z" stroke="#F6CD58" stroke-opacity="0.4" stroke-width="2" stroke-linecap="round" stroke-linejoin="round"/>
<path d="M2.6 18.28C2.6 17.832 2.6 17.6079 2.68719 17.4368C2.76389 17.2863 2.88628 17.1639 3.03681 17.0872C3.20794 17 3.43196 17 3.88 17H7.72C8.16804 17 8.39206 17 8.56319 17.0872C8.71372 17.1639 8.83611 17.2863 8.91281 17.4368C9 17.6079 9 17.832 9 18.28V22.12C9 22.568 9 22.7921 8.91281 22.9632C8.83611 23.1137 8.71372 23.2361 8.56319 23.3128C8.39206 23.4 8.16804 23.4 7.72 23.4H3.88C3.43196 23.4 3.20794 23.4 3.03681 23.3128C2.88628 23.2361 2.76389 23.1137 2.68719 22.9632C2.6 22.7921 2.6 22.568 2.6 22.12V18.28Z" stroke="#F6CD58" stroke-opacity="0.4" stroke-width="2" stroke-linecap="round" stroke-linejoin="round"/>
<path d="M1 2.28C1 1.83196 1 1.60794 1.08719 1.43681C1.16389 1.28628 1.28628 1.16389 1.43681 1.08719C1.60794 1 1.83196 1 2.28 1H6.12C6.56804 1 6.79206 1 6.96319 1.08719C7.11372 1.16389 7.23611 1.28628 7.31281 1.43681C7.4 1.60794 7.4 1.83196 7.4 2.28V6.12C7.4 6.56804 7.4 6.79206 7.31281 6.96319C7.23611 7.11372 7.11372 7.23611 6.96319 7.31281C6.79206 7.4 6.56804 7.4 6.12 7.4H2.28C1.83196 7.4 1.60794 7.4 1.43681 7.31281C1.28628 7.23611 1.16389 7.11372 1.08719 6.96319C1 6.79206 1 6.56804 1 6.12V2.28Z" stroke="#F6CD58" stroke-opacity="0.4" stroke-width="2" stroke-linecap="round" stroke-linejoin="round"/>
</svg>
