<svg width="34" height="38" viewBox="0 0 34 38" fill="none" xmlns="http://www.w3.org/2000/svg">
<path d="M15.6186 1.51151C16.1228 1.23141 16.3749 1.09135 16.6419 1.03645C16.8781 0.987851 17.1219 0.987851 17.3581 1.03645C17.6251 1.09135 17.8772 1.23141 18.3814 1.51151L31.5369 8.82015C32.0694 9.11598 32.3357 9.26389 32.5295 9.47427C32.7011 9.66038 32.8308 9.88097 32.9102 10.1213C33 10.3929 33 10.6975 33 11.3066V25.7371C33 26.3462 33 26.6508 32.9102 26.9224C32.8308 27.1627 32.7011 27.3833 32.5295 27.5694C32.3357 27.7798 32.0694 27.9277 31.5369 28.2235L18.3814 35.5322C17.8772 35.8123 17.6251 35.9523 17.3581 36.0072C17.1219 36.0558 16.8781 36.0558 16.6419 36.0072C16.3749 35.9523 16.1228 35.8123 15.6186 35.5322L2.46306 28.2235C1.93057 27.9277 1.66433 27.7798 1.47046 27.5694C1.29895 27.3833 1.16915 27.1627 1.08975 26.9224C1 26.6508 1 26.3462 1 25.7371V11.3066C1 10.6975 1 10.3929 1.08975 10.1213C1.16915 9.88098 1.29895 9.66038 1.47046 9.47427C1.66433 9.26389 1.93057 9.11598 2.46306 8.82015L15.6186 1.51151Z" fill="#141414"/>
<path d="M32.111 10.1267L16.9999 18.5218M16.9999 18.5218L1.88883 10.1267M16.9999 18.5218L17 35.4107M33 25.7371V11.3066C33 10.6975 33 10.3929 32.9102 10.1213C32.8308 9.88097 32.7011 9.66038 32.5295 9.47427C32.3357 9.26389 32.0694 9.11598 31.5369 8.82015L18.3814 1.51151C17.8772 1.23141 17.6251 1.09135 17.3581 1.03645C17.1219 0.987851 16.8782 0.987851 16.6419 1.03645C16.3749 1.09135 16.1228 1.23141 15.6186 1.51151L2.46306 8.82015C1.93057 9.11598 1.66433 9.26389 1.47046 9.47427C1.29895 9.66038 1.16915 9.88098 1.08975 10.1213C1 10.3929 1 10.6975 1 11.3066V25.7371C1 26.3462 1 26.6508 1.08975 26.9224C1.16915 27.1627 1.29895 27.3833 1.47046 27.5694C1.66433 27.7798 1.93057 27.9277 2.46306 28.2235L15.6186 35.5322C16.1228 35.8123 16.3749 35.9523 16.6419 36.0072C16.8782 36.0558 17.1219 36.0558 17.3581 36.0072C17.6251 35.9523 17.8772 35.8123 18.3814 35.5322L31.5369 28.2235C32.0694 27.9277 32.3357 27.7798 32.5295 27.5694C32.7011 27.3833 32.8308 27.1627 32.9102 26.9224C33 26.6508 33 26.3462 33 25.7371Z" stroke="#F6CD58" stroke-opacity="0.4" stroke-width="2" stroke-linecap="round" stroke-linejoin="round"/>
</svg>
