<svg width="34" height="31" viewBox="0 0 34 31" fill="none" xmlns="http://www.w3.org/2000/svg">
<path d="M28.0457 29.4843H29.6446C31.1814 29.4843 31.9498 29.4843 32.3734 29.1638C32.7424 28.8847 32.9708 28.458 32.9984 27.9961C33.03 27.4659 32.6038 26.8266 31.7513 25.5479L26.9875 18.4022C26.2831 17.3456 25.9309 16.8173 25.487 16.6332C25.0989 16.4722 24.6627 16.4722 24.2746 16.6332C23.8307 16.8173 23.4785 17.3456 22.7741 18.4022L21.5965 20.1686M28.0457 29.4843L15.8853 11.9192C15.186 10.9091 14.8363 10.404 14.3995 10.2264C14.0174 10.0711 13.5898 10.0711 13.2077 10.2264C12.7709 10.404 12.4212 10.9091 11.7219 11.9192L2.31211 25.5111C1.42115 26.7981 0.975662 27.4415 1.00103 27.9767C1.02311 28.4428 1.24975 28.8753 1.62037 29.1588C2.04595 29.4842 2.82858 29.4843 4.39385 29.4843H28.0457ZM31.2106 5.74738C31.2106 8.36928 29.0852 10.4948 26.4633 10.4948C23.8414 10.4948 21.7159 8.36928 21.7159 5.74738C21.7159 3.12547 23.8414 1 26.4633 1C29.0852 1 31.2106 3.12547 31.2106 5.74738Z" stroke="#F6CD58" stroke-opacity="0.4" stroke-width="2" stroke-linecap="round" stroke-linejoin="round"/>
</svg>
