<svg width="34" height="38" viewBox="0 0 34 38" fill="none" xmlns="http://www.w3.org/2000/svg">
<path d="M17 4.55556V24.4667C17 27.4536 17 28.9471 17.5813 30.088C18.0926 31.0915 18.9085 31.9074 19.9121 32.4187C21.0529 33 22.5464 33 25.5333 33H25.8889M25.8889 33C25.8889 34.9637 27.4808 36.5556 29.4444 36.5556C31.4081 36.5556 33 34.9637 33 33C33 31.0363 31.4081 29.4444 29.4444 29.4444C27.4808 29.4444 25.8889 31.0363 25.8889 33ZM8.11111 4.55556L25.8889 4.55555M8.11111 4.55556C8.11111 6.51924 6.51924 8.11111 4.55556 8.11111C2.59188 8.11111 1 6.51924 1 4.55556C1 2.59188 2.59188 1 4.55556 1C6.51924 1 8.11111 2.59188 8.11111 4.55556ZM25.8889 4.55555C25.8889 6.51923 27.4808 8.11111 29.4444 8.11111C31.4081 8.11111 33 6.51924 33 4.55556C33 2.59188 31.4081 1 29.4444 1C27.4808 1 25.8889 2.59188 25.8889 4.55555ZM17 18.7778H25.8889M25.8889 18.7778C25.8889 20.7415 27.4808 22.3333 29.4444 22.3333C31.4081 22.3333 33 20.7415 33 18.7778C33 16.8141 31.4081 15.2222 29.4444 15.2222C27.4808 15.2222 25.8889 16.8141 25.8889 18.7778Z" stroke="#F6CD58" stroke-opacity="0.4" stroke-width="2" stroke-linecap="round" stroke-linejoin="round"/>
</svg>
