<svg width="34" height="34" viewBox="0 0 34 34" fill="none" xmlns="http://www.w3.org/2000/svg">
<path d="M9.88889 1L24.1111 33M1 25.8889L17 17M9.53333 33H24.4667C27.4536 33 28.9471 33 30.0879 32.4187C31.0915 31.9074 31.9074 31.0915 32.4187 30.0879C33 28.9471 33 27.4536 33 24.4667V9.53333C33 6.54639 33 5.05291 32.4187 3.91205C31.9074 2.90852 31.0915 2.09262 30.0879 1.5813C28.9471 1 27.4536 1 24.4667 1H9.53333C6.54639 1 5.05291 1 3.91205 1.5813C2.90852 2.09262 2.09262 2.90852 1.5813 3.91205C1 5.05291 1 6.54639 1 9.53333V24.4667C1 27.4536 1 28.9471 1.5813 30.0879C2.09262 31.0915 2.90852 31.9074 3.91205 32.4187C5.05291 33 6.54639 33 9.53333 33Z" stroke="#F6CD58" stroke-opacity="0.4" stroke-width="2" stroke-linecap="round" stroke-linejoin="round"/>
</svg>
