<svg width="25" height="24" viewBox="0 0 25 24" fill="none" xmlns="http://www.w3.org/2000/svg">
<path fill-rule="evenodd" clip-rule="evenodd" d="M12.5 23C18.5751 23 23.5 18.0751 23.5 12C23.5 5.92487 18.5751 1 12.5 1C6.42487 1 1.5 5.92487 1.5 12C1.5 18.0751 6.42487 23 12.5 23ZM12.5 24C19.1274 24 24.5 18.6274 24.5 12C24.5 5.37258 19.1274 0 12.5 0C5.87258 0 0.5 5.37258 0.5 12C0.5 18.6274 5.87258 24 12.5 24Z" fill="#F6CD58"/>
<path d="M10.9554 16C15.1065 16 17.3773 12.9214 17.3773 10.2563C17.3773 10.1702 17.3773 10.0828 17.3732 9.99663C17.8153 9.71017 18.1969 9.35552 18.5 8.9493C18.087 9.11228 17.6494 9.21969 17.2013 9.26805C17.6733 9.01553 18.0268 8.61822 18.1961 8.14996C17.7527 8.3851 17.2673 8.55017 16.7613 8.63793C16.4211 8.31365 15.971 8.09883 15.4806 8.02674C14.9902 7.95464 14.4869 8.0293 14.0487 8.23914C13.6105 8.44899 13.2618 8.78231 13.0567 9.18748C12.8516 9.59264 12.8014 10.047 12.9141 10.4803C12.0167 10.44 11.1388 10.2314 10.3373 9.86786C9.53587 9.50436 8.82872 8.99412 8.26175 8.37025C7.97392 8.8152 7.88608 9.34153 8.01607 9.84234C8.14606 10.3432 8.48413 10.7809 8.96163 11.0667C8.60381 11.0558 8.25386 10.9698 7.94 10.8157V10.8434C7.94062 11.3095 8.12102 11.7611 8.45073 12.1219C8.78043 12.4827 9.2392 12.7306 9.7495 12.8236C9.55581 12.8713 9.35572 12.8951 9.15481 12.8943C9.01318 12.8947 8.87182 12.883 8.73269 12.8592C8.87692 13.2605 9.15775 13.6113 9.53586 13.8626C9.91396 14.1138 10.3704 14.2529 10.8413 14.2604C10.0414 14.8227 9.05334 15.1277 8.03625 15.1262C7.85703 15.1269 7.67794 15.1176 7.5 15.0985C8.53229 15.6876 9.73114 16.0003 10.9554 16Z" fill="#F6CD58"/>
</svg>
